<?xml version="1.0" encoding="utf-8"?>
<!-- Generator: Adobe Illustrator 24.0.0, SVG Export Plug-In . SVG Version: 6.00 Build 0)  -->
<svg version="1.1" id="Layer_1" xmlns="http://www.w3.org/2000/svg" xmlns:xlink="http://www.w3.org/1999/xlink" x="0px" y="0px"
	 viewBox="0 0 397.3029785 300" style="enable-background:new 0 0 397.3029785 300;" xml:space="preserve">
<style type="text/css">
	.st0{fill:#FFFFFF;}
</style>
<g>
	<path class="st0" d="M245.3146515,24.692749L205.136734,250.6465454l139.8726349,24.4882202l39.840271-225.2747192
		L245.3146515,24.692749z M343.8335266,155.8918457c-1.0971069-4.0497437-0.8302612-8.4678955-3.3745728-12.2357788
		c-0.1950073,1.4366455-0.5007935,2.8683472-0.5654297,4.3108521c-0.2577515,5.7573853,0.074646,11.494751,1.0521851,17.1707764
		c0.3743286,2.1732178,0.4159546,4.229187-0.1550903,6.3762817c-1.0883789,4.0922852-1.4920654,8.3070068-1.9572754,12.5071411
		c-0.2528076,2.2824097-0.3104858,4.6189575-1.5888062,6.671936c-0.2449341,0.3933105-0.3191528,0.8979492-0.4472656,1.3581543
		c-0.7076416,2.5419312-0.7051392,2.543396-3.3887939,2.0633545c-1.8820801-0.336731-3.7701416-0.6450195-5.6418457-1.0319214
		c-0.5779419-0.1195068-1.388855-0.1836548-1.3569336-1.0594482c0.0266113-0.7304077,0.579895-1.0907593,1.2532349-1.2602539
		c0.1546631-0.0389404,0.3033447-0.1028442,0.4587402-0.1373291c4.8312378-1.0722656,6.6590576-4.7020264,7.3161621-9.0349121
		c1.4421997-9.510498-0.6017456-18.5482788-4.1387329-27.3321533c-0.1468506-0.3646851-0.3755493-0.7012329-0.6004639-1.0271606
		c-0.0773926-0.1121216-0.2596436-0.1519165-0.5588989-0.3141479c-0.8873291,2.508606-1.0404053,5.1063232-1.3326416,7.668335
		c-0.2166748,1.9002075-0.3290405,3.8132324-0.4509888,5.7229004c-0.0421143,0.659729-0.2315674,1.2548828-0.5443115,1.8170166
		c-2.4958496,4.4854126-4.2843628,9.2628784-5.8496704,14.1330566c-0.4195557,1.3052368-0.9664917,2.5029907-2.0946655,3.4053345
		c-1.1555786,0.9244995-1.8372803,2.2250977-2.1862183,3.6408691c-0.3399048,1.3792114-1.1199951,1.7758179-2.4518433,1.5267334
		c-2.1137695-0.3953247-4.2425537-0.7095947-6.3616943-1.0770874c-0.4738159-0.0821533-0.9710693-0.2397461-1.0184326-0.8267212
		c-0.0423584-0.526123,0.2893066-0.9362793,0.7069702-1.1669922c0.4800415-0.2651978,1.0238037-0.430603,1.5558472-0.5834961
		c3.4935303-1.003418,5.9553833-3.1496582,7.6849365-6.3687744c3.8654785-7.194519,5.1073608-14.8136597,4.4425659-22.9006348
		c-0.347229-4.2235718-0.9969482-8.3866577-1.6400146-12.5601807c-0.3764648-2.4429932-0.8913574-2.8435059-3.3320312-2.37323
		c-1.71875,0.3311768-3.40448,0.8329468-5.1066284,1.2519531c-3.5880737,0.8832397-7.2175293,1.2589722-10.9169922,1.0084229
		c-1.9661255-0.1331787-1.9589233-0.0654907-2.2609253,1.776123c-1.1169434,6.8097534-0.913269,13.6835938-1.0287476,20.5435791
		c-0.0576782,3.4295044-0.2109375,6.8573608-0.3114014,10.2862549c-0.019165,0.6522217-0.1300049,1.2505493-0.5355225,1.7973633
		c-1.2813721,1.7276001-1.7810059,3.7360229-1.9070435,5.8326416c-0.0638428,1.062561-0.3483887,1.7175293-1.5494995,1.5064087
		c-2.7457886-0.482666-5.4924927-0.9614258-8.2330322-1.4727783c-0.9349976-0.1744385-0.8673706-0.8041382-0.4882812-1.4391479
		c0.3488159-0.5842896,0.9412842-0.8381958,1.5898438-0.9661255c3.8396606-0.7575684,5.4076538-3.5480347,6.3900146-6.9697266
		c1.1254883-3.920105,1.0805664-7.9176636,0.7546997-11.887207c-0.3974609-4.8427124-1.2478027-9.638916-2.2990723-14.3903198
		c-0.0310059-0.1400757-0.1356812-0.263855-0.2106323-0.4040527c-0.550293,0.3294678-0.5965576,0.906189-0.7376709,1.4384766
		c-1.9829712,7.4794922-3.5089111,15.0567017-4.8675537,22.6704102c-0.2796631,1.5670776-0.6715088,3.017334-1.9284058,4.2409058
		c-1.3984375,1.3613281-1.8380127,3.3222046-2.2961426,5.1911011c-0.3963623,1.6170654-0.5114746,1.7562866-2.0114746,1.5092773
		c-2.6722412-0.4400635-5.3336792-0.9454346-8.0006104-1.4182129c-0.4863892-0.0862427-0.9783325-0.1901855-1.0547485-0.7750244
		c-0.0801392-0.6139526,0.2043457-1.116333,0.7481689-1.3810425c0.4974365-0.2421875,1.0357056-0.4454956,1.578125-0.5431519
		c3.4849854-0.6278076,5.5266113-2.9332886,7.0653076-5.902832c1.6005249-3.0889282,2.4543457-6.4063721,3.0142212-9.7949829
		c1.336792-8.0907593,1.2014771-16.1989746,0.1598511-24.3167114c-0.1413574-1.1015625-0.5632935-1.6452637-1.5457764-2.1222534
		c-10.7490845-5.2182617-16.5819092-14.0497437-18.7426147-25.5896606
		c-0.4602661-2.4580078-0.5324097-4.9206543-0.4795532-7.3922729c0.0361938-1.6948853-0.2011719-3.3572388-0.5096436-4.9915161
		c-0.3578491-1.8961792-1.171936-3.6300659-2.6444702-4.9987183c-1.8148804-1.6867676-3.5978546-3.3340454-6.062027-4.1365967
		c-1.9651489-0.6400146-2.2666626-2.0411987-1.0855103-3.7583618c0.6738892-0.9796143,1.600769-1.5562744,2.8007202-1.5999146
		c0.875-0.0317993,1.7425079-0.0143433,2.6139679,0.2067261c3.0900879,0.7838135,6.1987915,1.494751,9.288269,2.2810059
		c0.8447266,0.2149658,1.6782227,0.532959,2.4619141,0.9161377c1.4429321,0.7055664,2.8873291,1.3029785,4.5253296,1.4423828
		c1.3412476,0.1141357,1.7901001,1.0270386,0.7828979,1.8843994c-2.3221436,1.9764404-2.2167358,4.4996338-1.9411011,7.0320435
		c0.2844849,2.6135864,0.2045898,5.2595825,0.7739258,7.8509521c0.2407837,1.0961914,0.5222778,2.1687622,0.8936768,3.2218628
		c2.4406128,6.9212646,7.7161255,9.5627441,14.7528687,7.4329224c3.4768677-1.0523071,6.553833-2.9108887,9.6818848-4.6719971
		c1.3913574-0.7832642,2.7295532-1.6669312,4.1494141-2.3925171c6.3084717-3.223877,13.4978027-3.3602295,19.1946411,1.7492676
		c0.8441162,0.757019,1.5725708,1.6075439,2.2015381,2.5188599c1.7960205,2.602478,3.9866333,4.8255005,6.6210327,6.5177002
		c7.2113037,4.6323242,10.8782349,11.4940186,12.4960327,19.624939
		C344.0469666,146.397583,344.421051,150.8480835,343.8335266,155.8918457z"/>
	<g>
		<path class="st0" d="M252.3540192,11.2251577l-1.8076172-0.3266602l-0.3378906,1.8691406l2.0292969,0.3666992
			l-0.2978516,1.6479492l-3.9355469-0.7109375l1.4975586-8.2885742l3.8007812,0.6865234l-0.2978516,1.6479492l-1.8945312-0.3417969
			l-0.2797852,1.5488281l1.8076172,0.3266602L252.3540192,11.2251577z"/>
		<path class="st0" d="M254.5693512,6.6983023l1.9062653,0.3447266l-1.2065582,6.6777344l2.0293121,0.3662109l-0.2910156,1.6108398
			l-3.9355621-0.7109375L254.5693512,6.6983023z"/>
		<path class="st0" d="M264.0381165,16.8545532c-0.2387695,0.0581055-0.7211914,0.0600586-1.300293-0.0444336
			c-2.3359375-0.4223633-2.9331055-2.524415-2.5439453-4.6767588c0.5527344-3.0615234,2.5683594-4.0307617,4.3017578-3.7177734
			c0.6025391,0.1088867,0.987793,0.3051758,1.1289062,0.4321289l-0.5834961,1.5458984
			c-0.1694336-0.1196289-0.3637695-0.230957-0.684082-0.2890625c-0.9355469-0.1689453-1.7988281,0.4624023-2.1323242,2.3071289
			c-0.3129883,1.734375,0.2280273,2.6069336,1.1870117,2.7797852c0.2333984,0.0424805,0.5498047,0.0488281,0.7558594,0.0351562
			L264.0381165,16.8545532z"/>
		<path class="st0" d="M270.6557922,13.6939077c-0.5664062,3.1357431-1.9316406,4.2226572-3.6035156,3.9204111
			c-2.0908203-0.3774414-2.3554688-2.7114267-1.984375-4.7646494c0.3710938-2.0537109,1.6225586-4.0634766,3.6274414-3.7011719
			C270.9463196,9.5552359,270.9399719,12.119689,270.6557922,13.6939077z M267.0444641,13.2319937
			c-0.3535156,1.9550781-0.112793,2.6591797,0.3666992,2.7456055c0.515625,0.0932627,0.9394531-0.8461914,1.2460938-2.5429688
			c0.2578125-1.4267578,0.2573242-2.5439453-0.3208008-2.6484375
			C267.8696594,10.7017202,267.3730774,11.4116812,267.0444641,13.2319937z"/>
		<path class="st0" d="M270.8462219,18.1983032l1.4975586-8.2885752l1.734375,0.3134766l0.6303711,3.1865234
			c0.1142578,0.5668945,0.3188477,1.6831055,0.4125977,2.3603516l0.0244141,0.0043945
			c0.0722656-0.6845703,0.2285156-2.3203125,0.5107422-3.8818359l0.2421875-1.3408203l1.6601562,0.2998047l-1.4975586,8.2885752
			l-1.734375-0.3129883l-0.6147461-2.9941416c-0.1420898-0.6860352-0.3256836-1.8496094-0.362793-2.4907227l-0.0244141-0.0043945
			c-0.0917969,0.7197266-0.2666016,2.1103516-0.5595703,3.7338877l-0.2578125,1.4262695L270.8462219,18.1983032z"/>
		<path class="st0" d="M277.6221008,17.4668579c0.3217773,0.2617188,0.9018555,0.4931641,1.3813477,0.5800781
			c0.7128906,0.1289062,1.0913086-0.1333008,1.1669922-0.5517578c0.0927734-0.5166016-0.2104492-0.8125-0.8583984-1.3740234
			c-1.1962891-1.0410166-1.2524414-1.9912119-1.1416016-2.6064463c0.2470703-1.3652344,1.3447266-2.3852539,3.2646484-2.0385742
			c0.5644531,0.1020508,1.0800781,0.347168,1.3110352,0.5419922l-0.5649414,1.5864258
			c-0.2197266-0.1923828-0.5517578-0.3916016-1.0322266-0.4785156c-0.6396484-0.1152344-1.0068359,0.1611328-1.0761719,0.5419922
			c-0.0639648,0.3564453,0.0654297,0.6220703,0.9052734,1.3193359c1.0283203,0.8457031,1.2524414,1.7880869,1.0991211,2.6367197
			c-0.2822266,1.5620117-1.6381836,2.3837891-3.3842773,2.0683594c-0.7128906-0.1289062-1.3476562-0.4086914-1.6137695-0.6220703
			L277.6221008,17.4668579z"/>
		<path class="st0" d="M285.8369446,12.3477163l-0.9599609,5.312501c-0.1977539,1.0947266,0.0405273,1.4677734,0.3842773,1.5297852
			c0.3564453,0.0644531,0.684082-0.1303711,0.8950195-1.2988281l0.9599609-5.312501l1.90625,0.3442383l-0.8979492,4.9682627
			c-0.3837891,2.1274414-1.3916016,3.2788086-3.1503906,2.9614258c-1.9433594-0.3510742-2.3125-1.8276367-1.9365234-3.9057617
			l0.8930664-4.9438486L285.8369446,12.3477163z"/>
		<path class="st0" d="M294.429718,19.7671509c0.0834961-0.6708984,0.2138672-1.6757812,0.3842773-2.5463867l-0.0244141-0.0048828
			c-0.293457,0.8486328-0.7006836,1.8417969-0.9033203,2.3261719l-1.0527344,2.4511719l-1.3769531-0.2490234l-0.1035156-2.6601562
			c-0.0200195-0.5239258-0.0415039-1.5947266,0.0048828-2.487793l-0.0244141-0.0043945
			c-0.1938477,0.8662109-0.4355469,1.8515625-0.5932617,2.5087891l-0.605957,2.5825195l-1.6113281-0.2915039l2.137207-8.1728525
			l1.9921875,0.3603516l0.0493164,2.7514658c0.0214844,1.0708008,0.0581055,2.0678711,0.0249023,3.0268555l0.0234375,0.0043945
			c0.2758789-0.8901367,0.6391602-1.8530273,1.0209961-2.8378906l1.0092773-2.5605478l1.9794922,0.3574219l-0.980957,8.3818369
			l-1.6845703-0.3041992L294.429718,19.7671509z"/>
		<path class="st0" d="M302.8100891,19.5029907c-0.5664062,3.1357422-1.9316406,4.2231445-3.6035156,3.9208984
			c-2.0908203-0.3779297-2.3554688-2.7114258-1.984375-4.7646484c0.3710938-2.0537109,1.6225586-4.0634775,3.6274414-3.7011728
			C303.1006165,15.3648062,303.0942688,17.928772,302.8100891,19.5029907z M299.198761,19.0410767
			c-0.3535156,1.9550781-0.112793,2.6591797,0.3666992,2.7460938c0.515625,0.0932617,0.9394531-0.8461914,1.2460938-2.5429688
			c0.2578125-1.4267578,0.2573242-2.5444336-0.3208008-2.6489258
			C300.0239563,16.5108032,299.5273743,17.2207642,299.198761,19.0410767z"/>
		<path class="st0" d="M306.4433899,16.1978149c0.4355469-0.0102539,1.112793,0.0356445,1.8256836,0.1640625
			c1.1181641,0.2021484,1.8461914,0.6010742,2.3168945,1.2314453c0.6162109,0.8100586,0.7358398,1.9746094,0.4555664,3.5244141
			c-0.2866211,1.5864258-0.9311523,2.7651367-1.8520508,3.296875c-0.6704102,0.3994141-1.5405273,0.5092773-2.7836914,0.2851562
			c-0.5644531-0.1020508-1.1069336-0.2636719-1.4331055-0.3608398L306.4433899,16.1978149z M307.1338196,23.2051392
			c0.0571289,0.0356445,0.1674805,0.0556641,0.2543945,0.0712891c0.6640625,0.1201172,1.3300781-0.546875,1.7011719-2.6005859
			c0.277832-1.5371094,0.0991211-2.5859375-0.7241211-2.734375c-0.0996094-0.0180664-0.1845703-0.0332031-0.2783203-0.0117188
			L307.1338196,23.2051392z"/>
		<path class="st0" d="M315.6040344,22.6524048l-1.8076172-0.3261719l-0.3378906,1.8691406l2.0283203,0.3662109
			l-0.2978516,1.6479492l-3.9355469-0.7109375l1.4975586-8.2885742l3.8007812,0.6865234l-0.2978516,1.6484375l-1.8935547-0.3422852
			l-0.2797852,1.5493164l1.8076172,0.3261719L315.6040344,22.6524048z"/>
		<path class="st0" d="M322.6391907,23.9238892l-1.8076172-0.3266602l-0.3378906,1.8691406l2.0283203,0.3666992
			l-0.2978516,1.6474609l-3.9345703-0.7109375l1.4975586-8.2880859l3.8007812,0.6865234l-0.2978516,1.6479492l-1.8945312-0.3422852
			l-0.2797852,1.5493164l1.8076172,0.3266602L322.6391907,23.9238892z"/>
		<path class="st0" d="M323.5156555,25.7588501c0.3217773,0.2612305,0.9018555,0.4931641,1.3813477,0.5795898
			c0.7128906,0.1289062,1.0913086-0.1333008,1.1669922-0.5512695c0.0927734-0.5166016-0.2104492-0.8125-0.8583984-1.3745117
			c-1.1953125-1.0410156-1.2524414-1.9907227-1.1416016-2.605957c0.2470703-1.3652344,1.3457031-2.3857422,3.2646484-2.0390625
			c0.5644531,0.1020508,1.0800781,0.3476562,1.3110352,0.5419922l-0.5649414,1.5864258
			c-0.2197266-0.1923828-0.5517578-0.3916016-1.03125-0.4780273c-0.640625-0.1157227-1.0078125,0.1606445-1.0771484,0.5415039
			c-0.0639648,0.3564453,0.0654297,0.6220703,0.9052734,1.3193359c1.0283203,0.8461914,1.2524414,1.7880859,1.0991211,2.6367188
			c-0.2822266,1.5620117-1.6381836,2.3842773-3.3842773,2.0688477c-0.7128906-0.1289062-1.3476562-0.4091797-1.6137695-0.6225586
			L323.5156555,25.7588501z"/>
		<path class="st0" d="M330.4272766,22.2319946L328.9888,21.9717407l0.3198242-1.7705078l4.7958984,0.8666992l-0.3198242,1.7705078
			l-1.4511719-0.262207l-1.1777344,6.5185547l-1.90625-0.3447266L330.4272766,22.2319946z"/>
		<path class="st0" d="M337.7817688,26.659729l-1.8076172-0.3266602l-0.3378906,1.8691406l2.0283203,0.3662109l-0.2978516,1.6484375
			l-3.9345703-0.7109375l1.4975586-8.2890625l3.8007812,0.6870117l-0.2978516,1.6479492l-1.8945312-0.3422852l-0.2797852,1.5493164
			l1.8076172,0.3266602L337.7817688,26.659729z"/>
		<path class="st0" d="M341.9424133,22.6113892c0.5102539-0.0097656,1.1977539,0.0507812,1.8491211,0.168457
			c1.0449219,0.1889648,1.8227539,0.456543,2.3173828,1.0917969c0.4467773,0.5507812,0.5395508,1.3041992,0.4150391,1.9926758
			c-0.1728516,0.9589844-0.6054688,1.5927734-1.1713867,1.9858398c-0.6342773,0.418457-1.5356445,0.4838867-2.175293,0.3681641
			c-0.0859375-0.0151367-0.1835938-0.0332031-0.2822266-0.0512695l-0.5332031,2.9521484l-1.8945312-0.3422852
			L341.9424133,22.6113892z M343.1728821,26.6299438c0.0708008,0.0263672,0.1450195,0.0395508,0.2182617,0.0527344
			c0.7626953,0.1381836,1.1113281-0.3828125,1.2202148-0.9863281c0.1196289-0.6635742-0.0620117-1.2041016-0.6772461-1.3154297
			c-0.1230469-0.0224609-0.262207-0.0224609-0.3544922-0.0009766L343.1728821,26.6299438z"/>
		<path class="st0" d="M347.8721008,23.6826782c0.5708008,0.0009766,1.2836914,0.0664062,1.9604492,0.1884766
			c0.9101562,0.1645508,1.7626953,0.4331055,2.2470703,1.0541992c0.4555664,0.5771484,0.5019531,1.1572266,0.3686523,1.8955078
			c-0.1464844,0.8115234-0.7026367,1.5737305-1.6225586,1.8139648l-0.0043945,0.0253906
			c0.496582,0.3432617,0.6772461,0.8842773,0.6791992,1.7226562c-0.0009766,0.8505859,0.0332031,2.0634766,0.1357422,2.4116211
			l-1.9921875-0.3598633c-0.0595703-0.2392578-0.0996094-1.1352539-0.0517578-2.0283203
			c0.0546875-1.0058594-0.1259766-1.2792969-0.5439453-1.3549805L348.8638,29.0176392l-0.5732422,3.1728516l-1.8935547-0.3422852
			L347.8721008,23.6826782z M349.1284485,27.553772l0.2460938,0.0449219
			c0.6152344,0.1108398,1.0180664-0.3618164,1.1269531-0.9643555c0.1088867-0.6030273-0.0419922-1.1000977-0.6289062-1.2319336
			c-0.1230469-0.0224609-0.2724609-0.0361328-0.3535156-0.0126953L349.1284485,27.553772z"/>
		<path class="st0" d="M358.4204407,29.550354c-0.5664062,3.1357422-1.9316406,4.2231445-3.6035156,3.9208984
			c-2.0908203-0.3779297-2.3554688-2.7114258-1.984375-4.7651367s1.6225586-4.0629883,3.6274414-3.7011719
			C358.710968,25.4116821,358.7046204,27.9761353,358.4204407,29.550354z M354.8091125,29.0884399
			c-0.3535156,1.9550781-0.112793,2.6591797,0.3666992,2.7456055c0.515625,0.09375,0.9394531-0.8457031,1.2460938-2.5429688
			c0.2578125-1.4267578,0.2573242-2.5439453-0.3208008-2.6484375
			C355.6343079,26.5581665,355.1377258,27.2681274,354.8091125,29.0884399z"/>
		<path class="st0" d="M360.085968,25.8892212c0.4345703-0.0102539,1.1118164,0.0356445,1.824707,0.1645508
			c1.1191406,0.2021484,1.847168,0.6005859,2.3178711,1.2314453c0.6152344,0.8100586,0.7358398,1.9741211,0.4555664,3.5239258
			c-0.2866211,1.5864258-0.9311523,2.7651367-1.8530273,3.2973633c-0.6694336,0.3994141-1.5405273,0.5092773-2.7827148,0.284668
			c-0.5654297-0.1020508-1.1069336-0.2636719-1.4331055-0.3608398L360.085968,25.8892212z M360.7763977,32.8970337
			c0.0571289,0.0356445,0.1674805,0.0556641,0.253418,0.0712891c0.6640625,0.1196289,1.3310547-0.546875,1.7021484-2.6005859
			c0.277832-1.5371094,0.0991211-2.5859375-0.7250977-2.7348633c-0.0986328-0.0175781-0.1845703-0.0332031-0.2773438-0.0117188
			L360.7763977,32.8970337z"/>
		<path class="st0" d="M368.2383118,27.2354126l-0.9599609,5.3125c-0.1977539,1.0947266,0.0395508,1.4677734,0.3842773,1.5297852
			c0.3574219,0.0644531,0.684082-0.1303711,0.8950195-1.2988281l0.9599609-5.3125l1.90625,0.3442383l-0.8979492,4.9682617
			c-0.3837891,2.1274414-1.3925781,3.2788086-3.1503906,2.9614258c-1.9433594-0.3515625-2.3125-1.8276367-1.9365234-3.9057617
			l0.8930664-4.9438477L368.2383118,27.2354126z"/>
		<path class="st0" d="M375.4082336,36.975647c-0.2387695,0.0581055-0.722168,0.0600586-1.300293-0.0444336
			c-2.3359375-0.421875-2.934082-2.5239258-2.5449219-4.6762695c0.5527344-3.0615234,2.5693359-4.03125,4.3027344-3.7177734
			c0.6025391,0.1088867,0.9868164,0.3051758,1.1289062,0.4321289l-0.5834961,1.5454102
			c-0.1694336-0.1191406-0.3647461-0.2304688-0.6850586-0.2885742c-0.9345703-0.1689453-1.7978516,0.4624023-2.1313477,2.3071289
			c-0.3129883,1.734375,0.2280273,2.6064453,1.1870117,2.7797852c0.2333984,0.0419922,0.5498047,0.0483398,0.7558594,0.034668
			L375.4082336,36.975647z"/>
		<path class="st0" d="M378.6460266,30.9434204l-1.4394531-0.2597656l0.3198242-1.7705078l4.796875,0.8666992l-0.3198242,1.7705078
			l-1.4511719-0.262207l-1.1777344,6.5180664l-1.90625-0.3442383L378.6460266,30.9434204z"/>
		<path class="st0" d="M387.4995422,34.8042603c-0.5664062,3.1357422-1.9316406,4.2226562-3.6035156,3.9204102
			c-2.0908203-0.3774414-2.3554688-2.7114258-1.984375-4.7646484c0.3710938-2.0537109,1.6225586-4.0634766,3.6274414-3.7011719
			C387.7900696,30.6655884,387.7837219,33.2300415,387.4995422,34.8042603z M383.8882141,34.3423462
			c-0.3535156,1.9550781-0.112793,2.6591797,0.3666992,2.7456055c0.515625,0.0932617,0.9394531-0.8461914,1.2460938-2.5429688
			c0.2578125-1.4267578,0.2573242-2.5439453-0.3208008-2.6484375
			C384.7134094,31.8120728,384.2168274,32.5220337,383.8882141,34.3423462z"/>
		<path class="st0" d="M250.1909332,24.725647c-0.234375,0.0576172-0.7075195,0.0595703-1.2749023-0.0429688
			c-2.2910156-0.4140625-2.8764648-2.4746094-2.4956055-4.5849609c0.5424805-3.0029297,2.5195312-3.953125,4.2197266-3.6455078
			c0.5908203,0.1064453,0.9663086,0.2988281,1.105957,0.4238281l-0.5732422,1.5151367
			c-0.1655273-0.1171875-0.3564453-0.2260742-0.6699219-0.2827148c-0.9169922-0.1660156-1.7631836,0.453125-2.0898438,2.2617188
			c-0.3071289,1.7001953,0.2231445,2.5561523,1.1625977,2.7255859c0.2304688,0.0419922,0.5410156,0.0473633,0.7412109,0.0341797
			L250.1909332,24.725647z"/>
		<path class="st0" d="M252.9550934,23.6812134l-0.5678711,1.5532227l-1.8085938-0.3266602l3.1928711-7.8149414l2.2666168,0.409668
			l0.0141602,8.394043l-1.808609-0.3266602l0.0249023-1.6513672L252.9550934,23.6812134z M254.383316,22.4575806
			l0.0737305-1.5805664c0.0229492-0.46875,0.0727539-1.3686523,0.0932617-1.8881836l-0.0253906-0.0043945
			c-0.1757812,0.4912109-0.4599609,1.3740234-0.6098633,1.7944336l-0.5200195,1.5L254.383316,22.4575806z"/>
		<path class="st0" d="M259.9785461,18.2139282l-0.940918,5.2089844c-0.1943359,1.0732422,0.0380859,1.4389648,0.3759766,1.5
			c0.3486328,0.0629883,0.6708984-0.1279297,0.8779297-1.2734375l0.940918-5.2084961l1.8691406,0.3374023l-0.8803711,4.8710938
			c-0.3769531,2.0859375-1.3662109,3.2148438-3.0898438,2.9033203c-1.9042969-0.3442383-2.2661133-1.7915039-1.8979492-3.8291016
			l0.8759766-4.847168L259.9785461,18.2139282z"/>
		<path class="st0" d="M263.0986633,25.2529907c0.3149414,0.2553711,0.8837891,0.4824219,1.3544922,0.5673828
			c0.6992188,0.1264648,1.0693359-0.1298828,1.1430664-0.5405273c0.0917969-0.5063477-0.2050781-0.7954102-0.840332-1.3466797
			c-1.171875-1.0209961-1.2275391-1.9526367-1.1186523-2.5551758c0.2416992-1.3388672,1.3183594-2.3398438,3.2001953-1.9995117
			c0.5546875,0.1000977,1.0585938,0.340332,1.2851562,0.5317383l-0.5551758,1.5546875
			c-0.215332-0.1879883-0.5405273-0.3833008-1.0102539-0.4682617c-0.6269531-0.1132812-0.987793,0.1577148-1.0551758,0.5307617
			c-0.0629883,0.3505859,0.0644531,0.6098633,0.8867188,1.2939453c1.0087891,0.8295898,1.2280273,1.7529297,1.0776367,2.5849609
			c-0.2763672,1.53125-1.6049805,2.3378906-3.3178711,2.0283203c-0.6992188-0.1264648-1.3222656-0.4013672-1.5830078-0.6103516
			L263.0986633,25.2529907z"/>
		<path class="st0" d="M269.585968,26.6860962l-0.5678711,1.5532227l-1.8085938-0.3266602l3.1928711-7.8149414l2.2666016,0.4091797
			l0.0151367,8.3945312l-1.8085938-0.3266602l0.0239258-1.6513672L269.585968,26.6860962z M271.0141907,25.4619751
			l0.0737305-1.5805664c0.0229492-0.46875,0.0737305-1.3681641,0.0932617-1.8881836l-0.0253906-0.0043945
			c-0.1748047,0.4916992-0.4589844,1.3745117-0.6098633,1.7949219l-0.5200195,1.4995117L271.0141907,25.4619751z"/>
		<path class="st0" d="M275.5967102,27.5108032c0.3149414,0.2553711,0.8837891,0.4829102,1.3544922,0.5678711
			c0.6992188,0.1264648,1.0693359-0.1303711,1.1430664-0.5405273c0.0917969-0.5068359-0.2050781-0.7958984-0.840332-1.347168
			c-1.171875-1.0209961-1.2285156-1.9526367-1.1196289-2.5551758c0.2416992-1.3383789,1.3193359-2.3393555,3.2011719-1.9995117
			c0.5546875,0.1000977,1.0585938,0.3408203,1.2851562,0.5317383l-0.5551758,1.5551758
			c-0.215332-0.1879883-0.5405273-0.3837891-1.0102539-0.4682617c-0.6269531-0.1132812-0.987793,0.1572266-1.0551758,0.5307617
			c-0.0629883,0.3500977,0.0644531,0.6098633,0.8867188,1.293457c1.0087891,0.8300781,1.2270508,1.753418,1.0766602,2.5854492
			c-0.2763672,1.53125-1.6049805,2.3374023-3.3168945,2.027832c-0.6992188-0.1259766-1.3222656-0.4013672-1.5830078-0.6103516
			L275.5967102,27.5108032z"/>
		<path class="st0" d="M284.6352844,27.500061l-1.7724609-0.3203125l-0.3310547,1.8325195l1.9892578,0.359375l-0.2919922,1.6157227
			l-3.8583984-0.6972656l1.4682617-8.1259766l3.7255859,0.6728516l-0.2919922,1.6152344l-1.8564453-0.3354492l-0.2744141,1.5195312
			l1.7724609,0.3203125L284.6352844,27.500061z"/>
		<path class="st0" d="M286.7827454,23.1817017c0.5605469,0.0014648,1.2578125,0.0654297,1.9208984,0.1850586
			c0.8935547,0.1616211,1.7285156,0.4238281,2.2045898,1.0332031c0.4448242,0.565918,0.4926758,1.1347656,0.3618164,1.8583984
			c-0.1435547,0.7958984-0.6904297,1.543457-1.5917969,1.7792969l-0.0048828,0.0244141
			c0.4873047,0.3364258,0.6655273,0.8666992,0.6669922,1.6884766c-0.0019531,0.8344727,0.0322266,2.0239258,0.1328125,2.3647461
			l-1.953125-0.3525391c-0.0576172-0.234375-0.0986328-1.1132812-0.0512695-1.9892578
			c0.0532227-0.9858398-0.1230469-1.2548828-0.5322266-1.3286133l-0.1816406-0.0327148l-0.5620117,3.1108398l-1.8564453-0.3354492
			L286.7827454,23.1817017z M288.0141907,26.9776001l0.2412109,0.043457
			c0.6035156,0.1088867,0.9980469-0.3549805,1.1044922-0.9458008c0.1069336-0.5913086-0.0410156-1.0786133-0.6157227-1.2070312
			c-0.1210938-0.0219727-0.2670898-0.0356445-0.3466797-0.0131836L288.0141907,26.9776001z"/>
		<path class="st0" d="M294.6631165,24.4805298l-1.4682617,8.1269531l-1.8691406-0.3378906l1.4682617-8.1264648
			L294.6631165,24.4805298z"/>
		<path class="st0" d="M300.3618469,29.5195923c-0.5556641,3.074707-1.8925781,4.140625-3.5322266,3.8442383
			c-2.0498047-0.3706055-2.309082-2.6586914-1.9453125-4.6723633c0.3637695-2.0126953,1.5908203-3.9829102,3.5556641-3.6279297
			C300.6479797,25.4619751,300.6406555,27.9761353,300.3618469,29.5195923z M296.8213196,29.0664673
			c-0.3461914,1.9169922-0.1098633,2.6074219,0.3598633,2.6923828c0.5068359,0.0917969,0.9223633-0.8291016,1.2226562-2.4931641
			c0.2529297-1.3989258,0.2509766-2.4951172-0.3154297-2.597168
			C297.6304016,26.5855103,297.1440735,27.2822876,296.8213196,29.0664673z"/>
		<path class="st0" d="M300.7002258,32.0459595c0.3149414,0.2558594,0.8837891,0.4833984,1.3535156,0.5683594
			c0.7001953,0.1259766,1.0703125-0.1303711,1.144043-0.5410156c0.0917969-0.5063477-0.2050781-0.7958984-0.840332-1.3466797
			c-1.171875-1.0209961-1.2285156-1.953125-1.1196289-2.5556641c0.2416992-1.3378906,1.3193359-2.3388672,3.2011719-1.9990234
			c0.5546875,0.1000977,1.0585938,0.340332,1.2851562,0.5317383l-0.5551758,1.5551758
			c-0.215332-0.1884766-0.5405273-0.3837891-1.0102539-0.46875c-0.6269531-0.1132812-0.987793,0.1572266-1.0551758,0.53125
			c-0.0629883,0.3496094,0.0644531,0.609375,0.8867188,1.293457c1.0078125,0.8295898,1.2270508,1.7529297,1.0766602,2.5849609
			c-0.2763672,1.53125-1.6049805,2.3374023-3.3168945,2.0283203c-0.6992188-0.1264648-1.3222656-0.4013672-1.5830078-0.6103516
			L300.7002258,32.0459595z"/>
		<path class="st0" d="M308.8491516,27.1685181c0.4257812-0.0102539,1.0888672,0.034668,1.7890625,0.1611328
			c1.0976562,0.1982422,1.8105469,0.5888672,2.2714844,1.2070312c0.6040039,0.7939453,0.7216797,1.9355469,0.4472656,3.4550781
			c-0.28125,1.5551758-0.9135742,2.7114258-1.8173828,3.2329102c-0.6552734,0.3920898-1.5092773,0.4995117-2.7270508,0.2792969
			c-0.5537109-0.1000977-1.0859375-0.2587891-1.4057617-0.3535156L308.8491516,27.1685181z M309.5249329,34.0391235
			c0.0561523,0.034668,0.1645508,0.0541992,0.2495117,0.0693359c0.6503906,0.1176758,1.3051758-0.5361328,1.6689453-2.5498047
			c0.2719727-1.5068359,0.0961914-2.534668-0.7114258-2.6806641c-0.0966797-0.0175781-0.1806641-0.0327148-0.2724609-0.0117188
			L309.5249329,34.0391235z"/>
		<path class="st0" d="M315.092804,34.9077759l-0.5668945,1.5532227l-1.8085938-0.3266602l3.1918945-7.8149414l2.2675781,0.409668
			l0.0141602,8.394043l-1.8085938-0.3266602l0.0249023-1.6513672L315.092804,34.9077759z M316.5220032,33.6841431
			l0.0727539-1.5805664c0.0229492-0.46875,0.0737305-1.3681641,0.0932617-1.8881836l-0.0244141-0.0043945
			c-0.1757812,0.4916992-0.4599609,1.3740234-0.6108398,1.7944336l-0.5200195,1.5L316.5220032,33.6841431z"/>
		<path class="st0" d="M319.02005,37.2734985l1.4682617-8.1269531l1.7001953,0.3076172l0.6181641,3.1240234
			c0.1123047,0.5566406,0.3120117,1.6503906,0.4038086,2.3144531l0.0244141,0.0043945
			c0.0712891-0.671875,0.2246094-2.2753906,0.5009766-3.8066406l0.237793-1.3139648l1.6279297,0.2939453l-1.4682617,8.1264648
			l-1.7001953-0.3071289l-0.6035156-2.9350586c-0.1396484-0.6723633-0.3193359-1.8139648-0.3554688-2.4428711l-0.0244141-0.0039062
			c-0.0888672,0.7055664-0.2617188,2.0693359-0.5493164,3.6611328l-0.2524414,1.3984375L319.02005,37.2734985z
			 M321.6816711,28.8145142c0.1445312-1.0073242,0.5986328-1.4487305,1.1044922-1.3574219
			c0.2900391,0.0527344,0.4765625,0.1860352,0.6259766,0.3256836c0.1494141,0.1381836,0.2763672,0.2612305,0.3964844,0.2827148
			c0.1689453,0.0307617,0.2490234-0.0673828,0.3608398-0.4077148l0.7949219,0.1435547
			c-0.1694336,1.1518555-0.5844727,1.4506836-1.1391602,1.3500977c-0.2890625-0.0522461-0.4916992-0.175293-0.6430664-0.3027344
			c-0.1494141-0.1386719-0.2436523-0.230957-0.3764648-0.2548828c-0.1083984-0.0195312-0.2416992,0.09375-0.3154297,0.3662109
			L321.6816711,28.8145142z"/>
		<path class="st0" d="M331.2993469,35.1089478c-0.5556641,3.074707-1.8935547,4.140625-3.5332031,3.8442383
			c-2.0498047-0.3701172-2.309082-2.6582031-1.9453125-4.671875s1.5908203-3.9833984,3.5556641-3.628418
			C331.5845032,31.0518188,331.5781555,33.5654907,331.2993469,35.1089478z M327.757843,34.6558228
			c-0.3461914,1.9169922-0.1098633,2.6074219,0.3598633,2.6923828c0.5068359,0.0913086,0.9223633-0.8291016,1.2226562-2.4931641
			c0.2529297-1.3989258,0.2509766-2.4951172-0.3154297-2.597168
			C328.566925,32.1748657,328.0805969,32.8716431,327.757843,34.6558228z"/>
		<path class="st0" d="M331.6367493,37.6358032c0.3149414,0.2553711,0.8837891,0.4824219,1.3535156,0.5673828
			c0.7001953,0.1264648,1.0703125-0.1298828,1.144043-0.5405273c0.0917969-0.5063477-0.2050781-0.7954102-0.840332-1.3466797
			c-1.171875-1.0209961-1.2285156-1.9526367-1.1196289-2.5551758c0.2416992-1.3388672,1.3193359-2.3398438,3.2011719-1.9995117
			c0.5546875,0.1000977,1.0585938,0.340332,1.2851562,0.5317383l-0.5551758,1.5551758
			c-0.215332-0.1879883-0.5405273-0.3837891-1.0102539-0.46875c-0.6269531-0.1132812-0.987793,0.1577148-1.0551758,0.5307617
			c-0.0629883,0.3505859,0.0644531,0.6098633,0.8867188,1.2939453c1.0078125,0.8295898,1.2270508,1.7529297,1.0766602,2.5849609
			c-0.2763672,1.53125-1.6049805,2.3378906-3.3168945,2.0283203c-0.6992188-0.1264648-1.3222656-0.4013672-1.5830078-0.6103516
			L331.6367493,37.6358032z"/>
		<path class="st0" d="M340.0517883,39.4170532l-0.5678711,1.5532227l-1.8085938-0.3266602l3.1928711-7.8149414l2.2666016,0.409668
			l0.0141602,8.3945312l-1.8085938-0.3271484l0.0249023-1.6513672L340.0517883,39.4170532z M341.480011,38.1934204
			l0.0737305-1.5805664c0.0229492-0.46875,0.0727539-1.3686523,0.0932617-1.8881836l-0.0253906-0.0048828
			c-0.1757812,0.4921875-0.4599609,1.3745117-0.6098633,1.7949219l-0.5200195,1.5L341.480011,38.1934204z"/>
		<path class="st0" d="M347.3760071,34.0044556l1.8691406,0.3374023l-1.1831055,6.5478516l1.9892578,0.359375l-0.2851562,1.5791016
			l-3.8583984-0.6972656L347.3760071,34.0044556z"/>
		<path class="st0" d="M352.5010071,41.6665649l-0.5668945,1.5532227l-1.8085938-0.3266602l3.1918945-7.8149414l2.2675781,0.4091797
			l0.0141602,8.3945312l-1.8085938-0.3266602l0.0239258-1.6513672L352.5010071,41.6665649z M353.9302063,40.4424438
			l0.0727539-1.5805664c0.0229492-0.46875,0.0737305-1.3681641,0.0932617-1.8881836l-0.0244141-0.0043945
			c-0.1757812,0.4916992-0.4599609,1.3745117-0.6108398,1.7949219l-0.5200195,1.4995117L353.9302063,40.4424438z"/>
		<path class="st0" d="M358.5107727,42.491272c0.3149414,0.2553711,0.8847656,0.4824219,1.3544922,0.5673828
			c0.6992188,0.1264648,1.0693359-0.1298828,1.1430664-0.5405273c0.0917969-0.5063477-0.2041016-0.7954102-0.8393555-1.3466797
			c-1.1728516-1.0209961-1.2285156-1.9526367-1.1196289-2.5551758c0.2416992-1.3388672,1.3183594-2.3398438,3.2001953-1.9995117
			c0.5546875,0.1000977,1.0585938,0.340332,1.2851562,0.5317383l-0.5541992,1.5546875
			c-0.215332-0.1879883-0.5415039-0.3833008-1.0112305-0.4682617c-0.6269531-0.1132812-0.9868164,0.1577148-1.0541992,0.5307617
			c-0.0629883,0.3505859,0.0644531,0.6098633,0.8867188,1.2939453c1.0078125,0.8295898,1.2270508,1.7529297,1.0766602,2.5849609
			c-0.2763672,1.53125-1.6049805,2.3378906-3.3178711,2.0283203c-0.6982422-0.1264648-1.3222656-0.4013672-1.5830078-0.6103516
			L358.5107727,42.491272z"/>
		<path class="st0" d="M364.9980774,43.9243774l-0.5668945,1.5532227l-1.8085938-0.3266602l3.1918945-7.8149414l2.2666016,0.4091797
			l0.0151367,8.3945312l-1.8085938-0.3266602l0.0239258-1.6513672L364.9980774,43.9243774z M366.4272766,42.7002563
			l0.0727539-1.5805664c0.0229492-0.46875,0.0737305-1.3681641,0.0932617-1.8881836l-0.0253906-0.0043945
			c-0.1748047,0.4916992-0.4589844,1.3745117-0.6098633,1.7949219l-0.5200195,1.4995117L366.4272766,42.7002563z"/>
		<path class="st0" d="M370.3935852,38.163147l1.8691406,0.3378906l-1.1831055,6.546875l1.9892578,0.3598633l-0.2851562,1.5791016
			l-3.8583984-0.6972656L370.3935852,38.163147z"/>
		<path class="st0" d="M376.7822571,39.3174438l-0.940918,5.2084961c-0.1943359,1.0732422,0.0380859,1.4389648,0.3769531,1.5
			c0.3486328,0.0629883,0.6699219-0.1279297,0.8769531-1.2734375l0.940918-5.2084961l1.8691406,0.3378906l-0.8803711,4.8710938
			c-0.3769531,2.0859375-1.3652344,3.2143555-3.0888672,2.9033203c-1.9052734-0.3442383-2.2670898-1.7919922-1.8989258-3.8295898
			l0.8759766-4.847168L376.7822571,39.3174438z"/>
		<path class="st0" d="M381.1948547,40.2393188c0.4257812-0.0107422,1.0888672,0.034668,1.7880859,0.1611328
			c1.0976562,0.1982422,1.8115234,0.5888672,2.2714844,1.2070312c0.6040039,0.7939453,0.7216797,1.9355469,0.4472656,3.4550781
			c-0.28125,1.5551758-0.9125977,2.7119141-1.8164062,3.2329102c-0.65625,0.3920898-1.5092773,0.4995117-2.7270508,0.2792969
			c-0.5546875-0.1000977-1.0869141-0.2587891-1.4057617-0.3540039L381.1948547,40.2393188z M381.870636,47.109436
			c0.0561523,0.0351562,0.1645508,0.0546875,0.2495117,0.0703125c0.6503906,0.1171875,1.3041992-0.5366211,1.6679688-2.550293
			c0.2719727-1.5068359,0.097168-2.534668-0.7114258-2.6806641c-0.0957031-0.0175781-0.1806641-0.0327148-0.2714844-0.012207
			L381.870636,47.109436z"/>
	</g>
	<g>
		<path class="st0" d="M207.7817535,256.5293579l-1.8183594-0.328125l-0.3398438,1.8808594l2.0419922,0.3691406
			l-0.2998047,1.6572266l-3.9599609-0.7148438l1.5068359-8.3398438l3.8232422,0.6904297l-0.2998047,1.6582031l-1.9052734-0.34375
			l-0.28125,1.5585938l1.8183594,0.3291016L207.7817535,256.5293579z"/>
		<path class="st0" d="M210.0112457,251.9746704l1.9179688,0.3466797l-1.2138672,6.71875l2.0410156,0.3691406l-0.2929688,1.6201172
			l-3.9589844-0.7148438L210.0112457,251.9746704z"/>
		<path class="st0" d="M219.5376129,262.1924438c-0.2407227,0.0585938-0.7260742,0.0605469-1.3081055-0.0449219
			c-2.3505859-0.4238281-2.9526367-2.5390625-2.5615234-4.7041016c0.5566406-3.0810547,2.5854492-4.0556641,4.3305664-3.7412109
			c0.6054688,0.1103516,0.9921875,0.3076172,1.1352539,0.4355469l-0.5874023,1.5546875
			c-0.1699219-0.1201172-0.3662109-0.2324219-0.6884766-0.2900391c-0.9414062-0.1699219-1.8085938,0.4648438-2.144043,2.3212891
			c-0.3154297,1.7441406,0.2280273,2.6220703,1.1928711,2.796875c0.2353516,0.0419922,0.5537109,0.0488281,0.7607422,0.0351562
			L219.5376129,262.1924438z"/>
		<path class="st0" d="M226.1948395,259.0127563c-0.5703125,3.1552734-1.9433594,4.2490234-3.6269531,3.9453125
			c-2.1035156-0.3808594-2.3691406-2.7285156-1.9960938-4.7949219c0.3735352-2.0664062,1.6333008-4.0878906,3.6508789-3.7226562
			C226.4863434,254.8486938,226.4809723,257.428772,226.1948395,259.0127563z M222.5595856,258.5479126
			c-0.3554688,1.9667969-0.1123047,2.6757812,0.3701172,2.7636719c0.5195312,0.09375,0.9462891-0.8515625,1.2548828-2.5595703
			c0.2592773-1.4355469,0.2578125-2.5595703-0.3232422-2.6650391
			C223.3906403,256.0020142,222.8906403,256.7168579,222.5595856,258.5479126z"/>
		<path class="st0" d="M226.3852692,263.5449829l1.5068359-8.3388672l1.7451172,0.3144531l0.6337891,3.2070312
			c0.1147461,0.5703125,0.3203125,1.6933594,0.4140625,2.3740234l0.0253906,0.0048828
			c0.0732422-0.6894531,0.2304688-2.3339844,0.5141602-3.90625l0.2436523-1.3486328l1.6699219,0.3017578l-1.5068359,8.3398438
			l-1.7451172-0.3154297l-0.6171875-3.0126953c-0.1445312-0.6904297-0.3286133-1.8603516-0.3652344-2.5058594l-0.0244141-0.0048828
			c-0.0927734,0.7246094-0.2685547,2.1240234-0.5639648,3.7568359l-0.2592773,1.4355469L226.3852692,263.5449829z"/>
		<path class="st0" d="M233.2021637,262.8086548c0.3227539,0.2626953,0.9067383,0.4960938,1.3891602,0.5839844
			c0.7177734,0.1298828,1.0981445-0.1347656,1.1743164-0.5556641c0.09375-0.5195312-0.2104492-0.8173828-0.8618164-1.3818359
			c-1.2041016-1.0478516-1.2612305-2.0029297-1.1494141-2.6220703c0.2480469-1.3730469,1.3535156-2.4003906,3.2841797-2.0517578
			c0.5693359,0.1025391,1.0869141,0.3496094,1.3193359,0.5449219l-0.5693359,1.5966797
			c-0.2207031-0.1933594-0.5546875-0.3945312-1.0371094-0.4814453c-0.6435547-0.1162109-1.0136719,0.1621094-1.0830078,0.5458984
			c-0.0644531,0.3583984,0.0668945,0.625,0.9101562,1.3261719c1.0351562,0.8515625,1.2602539,1.7988281,1.105957,2.6533203
			c-0.2841797,1.5712891-1.6474609,2.3984375-3.4052734,2.0810547c-0.7177734-0.1298828-1.3569336-0.4111328-1.6245117-0.6259766
			L233.2021637,262.8086548z"/>
		<path class="st0" d="M241.4673004,257.6582642l-0.9658203,5.3447266
			c-0.1987305,1.1015625,0.0400391,1.4765625,0.3876953,1.5400391c0.3583984,0.0644531,0.6870117-0.1318359,0.8994141-1.3076172
			l0.9658203-5.3447266l1.9179688,0.3466797l-0.9033203,4.9990234c-0.3867188,2.1396484-1.4003906,3.2988281-3.1689453,2.9785156
			c-1.9560547-0.3525391-2.3261719-1.8378906-1.9482422-3.9287109l0.8984375-4.9746094L241.4673004,257.6582642z"/>
		<path class="st0" d="M250.1113434,265.1231079c0.0844727-0.6757812,0.2148438-1.6865234,0.3862305-2.5625l-0.0244141-0.0048828
			c-0.2944336,0.8544922-0.7050781,1.8535156-0.9091797,2.3408203l-1.0585938,2.4658203l-1.3857422-0.25l-0.1035156-2.6767578
			c-0.0205078-0.5273438-0.0424805-1.6044922,0.0048828-2.5029297l-0.0253906-0.0048828
			c-0.1948242,0.8720703-0.4384766,1.8623047-0.5961914,2.5244141l-0.6098633,2.5986328l-1.6210938-0.2929688l2.1503906-8.2236328
			l2.0048828,0.3623047l0.0483398,2.7685547c0.0219727,1.078125,0.059082,2.0800781,0.0258789,3.0458984l0.0234375,0.0039062
			c0.2763672-0.8945312,0.6430664-1.8632812,1.0268555-2.8554688l1.0151367-2.5761719l1.9921875,0.3603516l-0.9863281,8.4335938
			l-1.6953125-0.3066406L250.1113434,265.1231079z"/>
		<path class="st0" d="M258.542511,264.8574829c-0.5703125,3.1552734-1.9433594,4.2490234-3.6259918,3.9443359
			c-2.1025391-0.3798828-2.3691406-2.7275391-1.9960938-4.7939453c0.3735352-2.0664062,1.6342773-4.0878906,3.6499176-3.7236328
			C258.8349915,260.6934204,258.8286438,263.2734985,258.542511,264.8574829z M254.9082184,264.3916626
			c-0.3554688,1.9677734-0.1132812,2.6767578,0.3701172,2.7636719c0.5195312,0.09375,0.9453278-0.8505859,1.2539215-2.5585938
			c0.2592773-1.4355469,0.2587891-2.5605469-0.3232422-2.6650391
			C255.7382965,261.8467407,255.2392731,262.5615845,254.9082184,264.3916626z"/>
		<path class="st0" d="M262.1977844,261.531311c0.4365234-0.0107422,1.1181641,0.0361328,1.8359375,0.1660156
			c1.1259766,0.203125,1.8583984,0.6035156,2.331543,1.2382812c0.6191406,0.8154297,0.7402344,1.9863281,0.4584961,3.5458984
			c-0.2880859,1.5957031-0.9375,2.7822266-1.8652344,3.3173828c-0.6723633,0.4013672-1.5483398,0.5117188-2.7983398,0.2861328
			c-0.5683594-0.1025391-1.1137695-0.2646484-1.4418945-0.3632812L262.1977844,261.531311z M262.8926086,268.5811157
			c0.0571289,0.0361328,0.168457,0.0566406,0.2543945,0.0722656c0.6679688,0.1210938,1.3398438-0.5498047,1.7128906-2.6171875
			c0.2792969-1.546875,0.0981445-2.6015625-0.7299805-2.7509766c-0.0986328-0.0175781-0.1855469-0.0332031-0.2783203-0.0107422
			L262.8926086,268.5811157z"/>
		<path class="st0" d="M271.4145813,268.0264282l-1.8193359-0.3291016l-0.3398438,1.8808594l2.0419922,0.3691406
			l-0.2998047,1.6572266l-3.9599609-0.7148438l1.5068359-8.3398438l3.8232422,0.6914062l-0.2998047,1.6582031l-1.9052734-0.3447266
			l-0.28125,1.5595703l1.8193359,0.328125L271.4145813,268.0264282z"/>
		<path class="st0" d="M278.4917297,269.3047485l-1.8183594-0.328125l-0.3398438,1.8808594l2.0419922,0.3681641
			l-0.2998047,1.6582031l-3.9599609-0.7158203l1.5068359-8.3388672l3.8232422,0.6904297l-0.2998047,1.6582031l-1.9052734-0.34375
			l-0.28125,1.5585938l1.8183594,0.3291016L278.4917297,269.3047485z"/>
		<path class="st0" d="M279.3730774,271.1504517c0.3227539,0.2626953,0.9067383,0.4960938,1.3891602,0.5830078
			c0.7177734,0.1298828,1.097168-0.1337891,1.1733398-0.5546875c0.09375-0.5195312-0.2104492-0.8173828-0.8618164-1.3818359
			c-1.203125-1.0478516-1.2612305-2.0039062-1.1494141-2.6230469c0.2480469-1.3730469,1.3544922-2.3994141,3.2851562-2.0507812
			c0.5683594,0.1025391,1.0859375,0.3496094,1.3193359,0.5449219l-0.5703125,1.5966797
			c-0.2207031-0.1933594-0.5546875-0.3945312-1.0371094-0.4814453c-0.6435547-0.1162109-1.0136719,0.1621094-1.0830078,0.5449219
			c-0.0644531,0.359375,0.0668945,0.6259766,0.9111328,1.3271484c1.0351562,0.8515625,1.2592773,1.7988281,1.1049805,2.6533203
			c-0.2841797,1.5712891-1.6464844,2.3984375-3.4042969,2.0810547c-0.7177734-0.1298828-1.3569336-0.4111328-1.6245117-0.6259766
			L279.3730774,271.1504517z"/>
		<path class="st0" d="M286.3262024,267.6026001l-1.4472656-0.2617188l0.3217773-1.78125l4.8251953,0.8720703l-0.3217773,1.78125
			l-1.4589844-0.2636719l-1.1850586,6.5576172l-1.9189453-0.3466797L286.3262024,267.6026001z"/>
		<path class="st0" d="M293.7261047,272.0576782l-1.8183594-0.3291016l-0.3398438,1.8808594l2.0410156,0.3691406
			l-0.2998047,1.6572266l-3.9589844-0.7148438l1.5068359-8.3398438l3.8222656,0.6914062l-0.2998047,1.6582031l-1.9042969-0.3447266
			l-0.28125,1.5595703l1.8183594,0.328125L293.7261047,272.0576782z"/>
		<path class="st0" d="M297.9116516,267.9834595c0.5131836-0.0087891,1.2050781,0.0517578,1.8603516,0.1699219
			c1.0517578,0.1904297,1.8339844,0.4599609,2.331543,1.0986328c0.4487305,0.5546875,0.5424805,1.3115234,0.4174805,2.0048828
			c-0.1748047,0.9648438-0.609375,1.6025391-1.1787109,1.9970703c-0.6386719,0.4208984-1.5454102,0.4873047-2.1879883,0.3710938
			c-0.0869141-0.015625-0.1855469-0.0332031-0.2841797-0.0507812l-0.5366211,2.9697266l-1.90625-0.3447266L297.9116516,267.9834595z
			 M299.1494446,272.0274048c0.0712891,0.0263672,0.1455078,0.0390625,0.2197266,0.0527344
			c0.7675781,0.1386719,1.1176758-0.3857422,1.2270508-0.9921875c0.1206055-0.6679688-0.0615234-1.2119141-0.6806641-1.3242188
			c-0.1240234-0.0224609-0.2641602-0.0214844-0.3569336,0L299.1494446,272.0274048z"/>
		<path class="st0" d="M303.8764954,269.0615845c0.574707,0.0019531,1.2910156,0.0673828,1.9716797,0.1904297
			c0.9160156,0.1650391,1.7734375,0.4345703,2.2617188,1.0595703c0.4580078,0.5810547,0.5048828,1.1650391,0.3706055,1.9072266
			c-0.1474609,0.8164062-0.7075195,1.5839844-1.6328125,1.8261719l-0.0043945,0.0244141
			c0.5,0.3466797,0.6831055,0.890625,0.6831055,1.7333984c-0.0004883,0.8554688,0.0341797,2.0761719,0.137207,2.4267578
			l-2.0048828-0.3623047c-0.0581055-0.2412109-0.1000977-1.1425781-0.0527344-2.0410156
			c0.0546875-1.0117188-0.1240234-1.2880859-0.5449219-1.3632812l-0.1855469-0.0341797l-0.5771484,3.1923828l-1.90625-0.34375
			L303.8764954,269.0615845z M305.1411438,272.9570923l0.2470703,0.0439453
			c0.6181641,0.1123047,1.0239258-0.3642578,1.1337891-0.9707031c0.109375-0.6054688-0.043457-1.1054688-0.6328125-1.2382812
			c-0.1240234-0.0224609-0.2734375-0.0371094-0.3544922-0.0126953L305.1411438,272.9570923z"/>
		<path class="st0" d="M314.4897766,274.9649048c-0.5703125,3.1552734-1.9433594,4.2490234-3.6259766,3.9453125
			c-2.1035156-0.3798828-2.3691406-2.7275391-1.9960938-4.7939453c0.3735352-2.0664062,1.6323242-4.0878906,3.6499023-3.7236328
			C314.7812805,270.8018188,314.7759094,273.381897,314.4897766,274.9649048z M310.8554993,274.500061
			c-0.3554688,1.9677734-0.1123047,2.6767578,0.3701172,2.7636719c0.5185547,0.09375,0.9453125-0.8515625,1.2539062-2.5595703
			c0.2592773-1.4345703,0.2578125-2.5595703-0.3232422-2.6640625
			C311.686554,271.9541626,311.186554,272.6690063,310.8554993,274.500061z"/>
		<path class="st0" d="M316.1655579,271.281311c0.4365234-0.0097656,1.1181641,0.0361328,1.8359375,0.1660156
			c1.125,0.203125,1.8574219,0.6035156,2.331543,1.2382812c0.6181641,0.8154297,0.7392578,1.9873047,0.4575195,3.5458984
			c-0.2880859,1.5957031-0.9375,2.7822266-1.8652344,3.3173828c-0.6723633,0.4023438-1.5483398,0.5117188-2.7983398,0.2861328
			c-0.5683594-0.1025391-1.1147461-0.2646484-1.440918-0.3623047L316.1655579,271.281311z M316.8594055,278.3320923
			c0.0571289,0.0361328,0.168457,0.0556641,0.2553711,0.0712891c0.6679688,0.1210938,1.3388672-0.5498047,1.7119141-2.6162109
			c0.2792969-1.546875,0.1000977-2.6015625-0.7290039-2.7509766c-0.0996094-0.0185547-0.1855469-0.0341797-0.2792969-0.0117188
			L316.8594055,278.3320923z"/>
		<path class="st0" d="M324.3667297,272.6358032l-0.9658203,5.3447266
			c-0.1987305,1.1015625,0.0400391,1.4765625,0.3867188,1.5400391c0.3583984,0.0644531,0.6879883-0.1318359,0.9003906-1.3076172
			l0.9658203-5.3447266l1.9179688,0.3466797l-0.9033203,4.9990234c-0.3867188,2.1396484-1.4003906,3.2988281-3.1708984,2.9785156
			c-1.9541016-0.3535156-2.3251953-1.8378906-1.9472656-3.9296875l0.8984375-4.9736328L324.3667297,272.6358032z"/>
		<path class="st0" d="M331.5796204,282.4356079c-0.2407227,0.0576172-0.7270508,0.0605469-1.3081055-0.0449219
			c-2.3505859-0.4248047-2.9526367-2.5390625-2.5615234-4.7041016c0.5566406-3.0810547,2.5854492-4.0566406,4.3295898-3.7412109
			c0.6064453,0.109375,0.9921875,0.3076172,1.1362305,0.4355469l-0.5883789,1.5546875
			c-0.1689453-0.1201172-0.3662109-0.2324219-0.6884766-0.2910156c-0.9404297-0.1699219-1.8085938,0.4658203-2.144043,2.3212891
			c-0.3154297,1.7451172,0.2290039,2.6230469,1.1938477,2.796875c0.2353516,0.0429688,0.5537109,0.0488281,0.7597656,0.0351562
			L331.5796204,282.4356079z"/>
		<path class="st0" d="M334.835968,276.366272l-1.4472656-0.2607422l0.3217773-1.78125l4.8251953,0.8710938l-0.3217773,1.78125
			l-1.4599609-0.2636719l-1.1850586,6.5585938l-1.9179688-0.3466797L334.835968,276.366272z"/>
		<path class="st0" d="M343.7436829,280.250061c-0.5703125,3.1552734-1.9433594,4.2490234-3.6259766,3.9453125
			c-2.1025391-0.3798828-2.3691406-2.7275391-1.9960938-4.7939453c0.3735352-2.0664062,1.6333008-4.0878906,3.6499023-3.7236328
			C344.0351868,276.0869751,344.0298157,278.6670532,343.7436829,280.250061z M340.1094055,279.7852173
			c-0.3554688,1.9677734-0.1132812,2.6767578,0.3701172,2.7636719c0.5185547,0.09375,0.9453125-0.8515625,1.2539062-2.5595703
			c0.2592773-1.4345703,0.2578125-2.5595703-0.3232422-2.6640625
			C340.9394836,277.2393188,340.4404602,277.9541626,340.1094055,279.7852173z"/>
		<path class="st0" d="M205.6010895,270.1113892c-0.2353516,0.0566406-0.7114258,0.0585938-1.2807617-0.0439453
			c-2.3027344-0.4160156-2.8925781-2.4873047-2.5097656-4.6074219c0.5454102-3.0175781,2.5327148-3.9726562,4.2416992-3.6640625
			c0.59375,0.1074219,0.9716797,0.3007812,1.1123047,0.4257812l-0.5756836,1.5234375
			c-0.1665039-0.1171875-0.3603516-0.2275391-0.6748047-0.2841797c-0.9208984-0.1669922-1.7724609,0.4550781-2.1005859,2.2724609
			c-0.309082,1.7089844,0.2246094,2.5683594,1.1699219,2.7392578c0.2304688,0.0419922,0.5419922,0.0478516,0.7451172,0.0351562
			L205.6010895,270.1113892z"/>
		<path class="st0" d="M208.383316,269.0615845l-0.5693359,1.5615234l-1.8183594-0.328125l3.2080078-7.8544922l2.2792969,0.4121094
			l0.0146484,8.4365234l-1.8183594-0.3291016l0.0253906-1.6591797L208.383316,269.0615845z M209.8198395,267.8320923
			l0.0732422-1.5878906c0.0224609-0.4716797,0.0737305-1.3759766,0.0927734-1.8984375l-0.0234375-0.0039062
			c-0.1772461,0.4941406-0.4624023,1.3808594-0.6142578,1.8037109l-0.5224609,1.5068359L209.8198395,267.8320923z"/>
		<path class="st0" d="M215.4477692,263.569397l-0.9458008,5.234375c-0.1948242,1.078125,0.0390625,1.4453125,0.3789062,1.5068359
			c0.3505859,0.0634766,0.6738281-0.1279297,0.8818359-1.2792969l0.9458008-5.234375l1.8779297,0.3388672l-0.8847656,4.8955078
			c-0.3789062,2.0966797-1.3710938,3.2314453-3.1054688,2.9179688c-1.9140625-0.3457031-2.2763672-1.8007812-1.9067383-3.8486328
			l0.8803711-4.8710938L215.4477692,263.569397z"/>
		<path class="st0" d="M218.5913239,270.6436157c0.3154297,0.2568359,0.8876953,0.4853516,1.3603516,0.5703125
			c0.703125,0.1269531,1.0751953-0.1308594,1.1494141-0.5419922c0.0922852-0.5097656-0.2060547-0.8007812-0.8442383-1.3544922
			c-1.1782227-1.0253906-1.2338867-1.9619141-1.1245117-2.5673828c0.2431641-1.3457031,1.3251953-2.3515625,3.2158203-2.0097656
			c0.5576172,0.1005859,1.0639648,0.3417969,1.2924805,0.5341797l-0.5581055,1.5634766
			c-0.2158203-0.1894531-0.5429688-0.3867188-1.015625-0.4716797c-0.6298828-0.1132812-0.9926758,0.1582031-1.0605469,0.5341797
			c-0.0634766,0.3515625,0.0644531,0.6123047,0.8916016,1.2998047c1.0126953,0.8339844,1.2333984,1.7617188,1.0825195,2.5976562
			c-0.2783203,1.5390625-1.6132812,2.3496094-3.3339844,2.0380859c-0.703125-0.1269531-1.3291016-0.4023438-1.5917969-0.6123047
			L218.5913239,270.6436157z"/>
		<path class="st0" d="M225.1157379,272.085022l-0.5693359,1.5615234l-1.8183594-0.3291016l3.2080078-7.8535156l2.2783203,0.4121094
			l0.015625,8.4355469l-1.8183594-0.328125l0.0244141-1.6601562L225.1157379,272.085022z M226.5522614,270.8555298
			l0.0732422-1.5878906c0.0224609-0.4716797,0.0737305-1.3759766,0.0927734-1.8984375l-0.0244141-0.0048828
			c-0.1762695,0.4941406-0.4614258,1.3808594-0.6132812,1.8046875l-0.5224609,1.5068359L226.5522614,270.8555298z"/>
		<path class="st0" d="M231.164566,272.9151001c0.3154297,0.2568359,0.8876953,0.4853516,1.3603516,0.5712891
			c0.7021484,0.1259766,1.0742188-0.1318359,1.1484375-0.5429688c0.0922852-0.5097656-0.2050781-0.8007812-0.8432617-1.3544922
			c-1.1782227-1.0253906-1.2348633-1.9619141-1.1254883-2.5673828c0.2431641-1.3457031,1.3261719-2.3515625,3.2158203-2.0097656
			c0.5576172,0.1005859,1.0639648,0.3427734,1.2924805,0.5341797l-0.5581055,1.5634766
			c-0.2158203-0.1894531-0.5429688-0.3857422-1.015625-0.4716797c-0.6289062-0.1132812-0.9916992,0.1582031-1.0595703,0.5341797
			c-0.0634766,0.3515625,0.0644531,0.6123047,0.8916016,1.2998047c1.0126953,0.8339844,1.2333984,1.7617188,1.0825195,2.5976562
			c-0.2783203,1.5390625-1.6132812,2.3496094-3.3349609,2.0380859c-0.7021484-0.1269531-1.328125-0.4023438-1.5908203-0.6123047
			L231.164566,272.9151001z"/>
		<path class="st0" d="M240.2534332,272.9053345l-1.7822266-0.3222656l-0.3330078,1.8427734l2,0.3613281l-0.2929688,1.6230469
			l-3.8779297-0.7001953l1.4755859-8.1669922l3.7441406,0.6767578l-0.293457,1.6230469l-1.8662109-0.3369141l-0.2758789,1.5263672
			l1.7822266,0.3212891L240.2534332,272.9053345z"/>
		<path class="st0" d="M242.4170074,268.5664673c0.5615234,0.0009766,1.2636719,0.0654297,1.9296875,0.1855469
			c0.8974609,0.1630859,1.7382812,0.4267578,2.2143555,1.0390625c0.4492188,0.5693359,0.4960938,1.1396484,0.3647461,1.8681641
			c-0.1445312,0.7988281-0.6938477,1.5507812-1.6000977,1.7871094l-0.0039062,0.0244141
			c0.4892578,0.3388672,0.6679688,0.8710938,0.6689453,1.6982422c-0.0009766,0.8378906,0.0332031,2.0322266,0.1337891,2.3759766
			l-1.9628906-0.3544922c-0.0576172-0.2363281-0.0986328-1.1191406-0.0517578-1.9990234
			c0.0532227-0.9912109-0.1230469-1.2607422-0.5341797-1.3349609l-0.1816406-0.0332031l-0.5644531,3.1259766l-1.8662109-0.3369141
			L242.4170074,268.5664673z M243.6548004,272.3809204l0.2421875,0.0439453
			c0.6054688,0.109375,1.0024414-0.3564453,1.109375-0.9511719c0.1074219-0.5927734-0.0419922-1.0830078-0.6186523-1.2119141
			c-0.1210938-0.0224609-0.2700195-0.0371094-0.3476562-0.0136719L243.6548004,272.3809204z"/>
		<path class="st0" d="M250.3413239,269.8731079l-1.4755859,8.1669922l-1.8769531-0.3388672l1.4755859-8.1669922
			L250.3413239,269.8731079z"/>
		<path class="st0" d="M256.073761,274.937561c-0.558609,3.0908203-1.9033356,4.1611328-3.5507965,3.8632812
			c-2.0605469-0.3720703-2.3208008-2.671875-1.9550781-4.6953125c0.3652344-2.0234375,1.5996094-4.0029297,3.5742188-3.6455078
			C256.3598938,270.8604126,256.3540344,273.3867798,256.073761,274.937561z M252.5146637,274.4824829
			c-0.3481445,1.9267578-0.1113281,2.6201172,0.3623047,2.7060547c0.5087891,0.0917969,0.9257812-0.8339844,1.2280273-2.5058594
			c0.2539062-1.40625,0.2524414-2.5078125-0.3168945-2.6103516
			C253.3271637,271.9893188,252.8383942,272.6895142,252.5146637,274.4824829z"/>
		<path class="st0" d="M256.4194641,277.4776001c0.3154297,0.2578125,0.8876953,0.4863281,1.3603516,0.5712891
			c0.703125,0.1269531,1.0742188-0.1308594,1.1484375-0.5429688c0.0922852-0.5087891-0.2050781-0.7998047-0.8432617-1.3535156
			c-1.1782227-1.0263672-1.2348633-1.9628906-1.1254883-2.5683594c0.2431641-1.3447266,1.3261719-2.3505859,3.2167969-2.0097656
			c0.5566406,0.1005859,1.0639648,0.3427734,1.2915039,0.5341797l-0.5571289,1.5634766
			c-0.2158203-0.1894531-0.5429688-0.3857422-1.0166016-0.4716797c-0.6289062-0.1132812-0.9916992,0.1591797-1.0595703,0.5341797
			c-0.0634766,0.3515625,0.0644531,0.6132812,0.8916016,1.2998047c1.0126953,0.8349609,1.2333984,1.7626953,1.0825195,2.5986328
			c-0.2783203,1.5390625-1.6132812,2.3486328-3.3339844,2.0380859c-0.703125-0.1269531-1.3291016-0.4033203-1.5918121-0.6132812
			L256.4194641,277.4776001z"/>
		<path class="st0" d="M264.6162415,272.5772095c0.4272461-0.0107422,1.0947266,0.0351562,1.7978516,0.1621094
			c1.1025391,0.1992188,1.8203125,0.5917969,2.2836914,1.2128906c0.6064453,0.7978516,0.7246094,1.9462891,0.4487305,3.4726562
			c-0.2822266,1.5634766-0.9179688,2.7246094-1.8251953,3.2490234c-0.6601562,0.3935547-1.5185547,0.5019531-2.7412109,0.2802734
			c-0.5576172-0.1005859-1.0927734-0.2597656-1.4135742-0.3544922L264.6162415,272.5772095z M265.2969055,279.4815063
			c0.0561523,0.0361328,0.1645508,0.0556641,0.2485352,0.0703125c0.6542969,0.1191406,1.3115234-0.5390625,1.6767578-2.5625
			c0.2739258-1.5146484,0.0986328-2.546875-0.7138672-2.6933594c-0.0966797-0.0175781-0.1816406-0.0332031-0.2724609-0.0126953
			L265.2969055,279.4815063z"/>
		<path class="st0" d="M270.8970032,280.3565063l-0.5693359,1.5615234l-1.8183594-0.3291016l3.2080078-7.8535156
			l2.2783203,0.4111328l0.015625,8.4365234l-1.8183594-0.328125l0.0244141-1.6601562L270.8970032,280.3565063z
			 M272.3335266,279.1270142l0.0732422-1.5888672c0.0224609-0.4707031,0.0737305-1.375,0.0927734-1.8974609l-0.0244141-0.0048828
			c-0.1762695,0.4941406-0.4614258,1.3808594-0.6132812,1.8046875l-0.5224609,1.5068359L272.3335266,279.1270142z"/>
		<path class="st0" d="M274.8511047,282.7354126l1.4755859-8.1679688l1.7080078,0.3095703l0.6210938,3.140625
			c0.1123047,0.5576172,0.3125,1.6572266,0.40625,2.3251953l0.0244141,0.0039062
			c0.0712891-0.6748047,0.2255859-2.2871094,0.503418-3.8261719l0.2387695-1.3203125l1.6357422,0.2958984L279.9888,283.663147
			l-1.7089844-0.3085938l-0.6054688-2.9501953c-0.1416016-0.6757812-0.3212891-1.8222656-0.3574219-2.4541016l-0.0244141-0.0039062
			c-0.0908203,0.7089844-0.2626953,2.0791016-0.5517578,3.6787109l-0.2539062,1.4052734L274.8511047,282.7354126z
			 M277.5244446,274.2334595c0.1455078-1.0117188,0.6015625-1.4550781,1.1103516-1.3632812
			c0.2910156,0.0527344,0.4790039,0.1865234,0.6298828,0.3261719c0.1494141,0.1396484,0.2773438,0.2626953,0.3984375,0.2851562
			c0.1689453,0.0302734,0.2490234-0.0673828,0.3623047-0.4101562l0.7988281,0.1445312
			c-0.1708984,1.1582031-0.5878906,1.4570312-1.1455078,1.3564453c-0.2910156-0.0527344-0.4946289-0.1757812-0.6459961-0.3037109
			c-0.1503906-0.1396484-0.2456055-0.2324219-0.3793945-0.2558594c-0.1083984-0.0205078-0.2416992,0.09375-0.3164062,0.3671875
			L277.5244446,274.2334595z"/>
		<path class="st0" d="M287.1968079,280.5606079c-0.5585938,3.0908203-1.9033203,4.1611328-3.5507812,3.8632812
			c-2.0605469-0.3720703-2.3208008-2.671875-1.9550781-4.6953125c0.3652344-2.0234375,1.5996094-4.0029297,3.5742188-3.6455078
			C287.4829407,276.4834595,287.4770813,279.0098267,287.1968079,280.5606079z M283.6377258,280.1055298
			c-0.3481445,1.9267578-0.1113281,2.6201172,0.3623047,2.7060547c0.5087891,0.0917969,0.9257812-0.8339844,1.2280273-2.5058594
			c0.2539062-1.40625,0.2524414-2.5078125-0.3168945-2.6103516
			C284.4502258,277.6123657,283.9614563,278.312561,283.6377258,280.1055298z"/>
		<path class="st0" d="M287.542511,283.100647c0.3154297,0.2578125,0.8876953,0.4863281,1.3603516,0.5712891
			c0.703125,0.1269531,1.0751953-0.1308594,1.1494141-0.5429688c0.0922852-0.5087891-0.2060547-0.7998047-0.8442383-1.3535156
			c-1.1782227-1.0263672-1.2348633-1.9628906-1.1254883-2.5683594c0.2431641-1.3447266,1.3261719-2.3505859,3.2167969-2.0097656
			c0.5566406,0.1005859,1.0639648,0.3427734,1.2915039,0.5341797l-0.5571289,1.5634766
			c-0.2158203-0.1894531-0.5429688-0.3857422-1.0166016-0.4716797c-0.6289062-0.1132812-0.9916992,0.1591797-1.0595703,0.5341797
			c-0.0634766,0.3515625,0.0644531,0.6132812,0.8916016,1.2998047c1.0126953,0.8349609,1.2333984,1.7626953,1.0825195,2.5986328
			c-0.2783203,1.5390625-1.6132812,2.3486328-3.3339844,2.0380859c-0.703125-0.1269531-1.3291016-0.4033203-1.5917969-0.6132812
			L287.542511,283.100647z"/>
		<path class="st0" d="M296.0073547,284.8926392l-0.5703125,1.5615234l-1.8173828-0.328125l3.2080078-7.8544922l2.2783203,0.4121094
			l0.0146484,8.4365234l-1.8183594-0.3291016l0.0253906-1.6591797L296.0073547,284.8926392z M297.4429016,283.663147
			l0.0742188-1.5878906c0.0224609-0.4716797,0.0737305-1.3759766,0.0927734-1.8984375l-0.0244141-0.0039062
			c-0.1762695,0.4941406-0.4614258,1.3808594-0.6132812,1.8037109l-0.5224609,1.5068359L297.4429016,283.663147z"/>
		<path class="st0" d="M303.3755188,279.4551392l1.8779297,0.3388672l-1.1889648,6.5800781l2,0.3613281l-0.2866211,1.5869141
			l-3.8779297-0.7001953L303.3755188,279.4551392z"/>
		<path class="st0" d="M308.5307922,287.1553345l-0.5693359,1.5615234l-1.8183594-0.328125l3.2080078-7.8544922l2.2783203,0.4121094
			l0.015625,8.4365234l-1.8183594-0.3291016l0.0244141-1.6591797L308.5307922,287.1553345z M309.9673157,285.9258423
			l0.0732422-1.5878906c0.0224609-0.4716797,0.0737305-1.3759766,0.0927734-1.8984375l-0.0234375-0.0039062
			c-0.1772461,0.4941406-0.4624023,1.3808594-0.6142578,1.8037109l-0.5224609,1.5068359L309.9673157,285.9258423z"/>
		<path class="st0" d="M314.5796204,287.9854126c0.3154297,0.2578125,0.8876953,0.4863281,1.3603516,0.5712891
			c0.7021484,0.1269531,1.0742188-0.1308594,1.1484375-0.5429688c0.0922852-0.5087891-0.2050781-0.7998047-0.8432617-1.3535156
			c-1.1782227-1.0263672-1.2348633-1.9628906-1.1254883-2.5683594c0.2431641-1.3447266,1.3261719-2.3505859,3.2158203-2.0097656
			c0.5576172,0.1005859,1.0639648,0.3427734,1.2924805,0.5341797l-0.5571289,1.5634766
			c-0.2158203-0.1884766-0.5439453-0.3857422-1.0166016-0.4716797c-0.6289062-0.1132812-0.9916992,0.1591797-1.0595703,0.5341797
			c-0.0634766,0.3515625,0.0644531,0.6132812,0.8916016,1.3007812c1.0126953,0.8339844,1.2333984,1.7617188,1.0825195,2.5976562
			c-0.2783203,1.5390625-1.6132812,2.3486328-3.3349609,2.0380859c-0.7021484-0.1269531-1.328125-0.4033203-1.5908203-0.6132812
			L314.5796204,287.9854126z"/>
		<path class="st0" d="M321.1040344,289.4268188l-0.5703125,1.5615234l-1.8183594-0.328125l3.2089844-7.8544922l2.2783203,0.4121094
			l0.0146484,8.4365234l-1.8183594-0.3291016l0.0253906-1.6591797L321.1040344,289.4268188z M322.5395813,288.1973267
			l0.0742188-1.5878906c0.0224609-0.4716797,0.0727539-1.3759766,0.0927734-1.8984375l-0.0244141-0.0039062
			c-0.1772461,0.4941406-0.4624023,1.3808594-0.6132812,1.8037109l-0.5224609,1.5078125L322.5395813,288.1973267z"/>
		<path class="st0" d="M326.5327454,283.6387329l1.8779297,0.3398438l-1.1889648,6.5791016l2,0.3613281l-0.2866211,1.5878906
			l-3.8779297-0.7011719L326.5327454,283.6387329z"/>
		<path class="st0" d="M332.95755,284.7998657l-0.9458008,5.234375c-0.1948242,1.078125,0.0390625,1.4462891,0.3779297,1.5068359
			c0.3515625,0.0634766,0.6748047-0.1279297,0.8828125-1.2792969l0.9458008-5.234375l1.8779297,0.3388672l-0.8847656,4.8955078
			c-0.3789062,2.0966797-1.3720703,3.2314453-3.1054688,2.9179688c-1.9140625-0.3457031-2.2763672-1.8007812-1.9067383-3.8486328
			l0.8803711-4.8710938L332.95755,284.7998657z"/>
		<path class="st0" d="M337.398468,285.7266235c0.4262695-0.0107422,1.09375,0.0351562,1.7978516,0.1621094
			c1.1015625,0.1992188,1.8203125,0.5917969,2.2827148,1.2138672c0.6064453,0.796875,0.7246094,1.9453125,0.4487305,3.4716797
			c-0.2822266,1.5634766-0.9179688,2.7255859-1.8251953,3.2490234c-0.6601562,0.3945312-1.5175781,0.5019531-2.7412109,0.2802734
			c-0.5576172-0.1005859-1.0927734-0.2597656-1.4125977-0.3544922L337.398468,285.7266235z M338.0781555,292.631897
			c0.0561523,0.0351562,0.1645508,0.0546875,0.2495117,0.0703125c0.6542969,0.1181641,1.3105469-0.5390625,1.6757812-2.5625
			c0.2739258-1.515625,0.0986328-2.5478516-0.7138672-2.6943359c-0.0966797-0.0175781-0.1806641-0.0332031-0.2724609-0.0126953
			L338.0781555,292.631897z"/>
	</g>
	<g>
		<path class="st0" d="M148.2145996,76.1767197c1.4344025-0.3553085,2.2762146-0.5378265,3.1031189-0.772789
			c6.3764038-1.8117523,12.7451935-3.6504517,19.1263123-5.4453964c3.2197571-0.9057083,4.1008301-0.1444397,3.6173553,3.2390976
			c-0.2010345,1.4067535-0.667099,2.7919617-1.1470947,4.139122c-0.9038086,2.5367126-2.6642914,3.8594666-5.4131317,4.4166946
			c-7.7475586,1.5705185-15.4326172,3.4470901-23.1582642,5.1296692c-1.2123718,0.2640533-1.9694824,0.7869186-2.5436707,1.8803864
			c-11.0411835,21.0265808-21.5755386,42.2839661-29.468956,64.7392578
			c-2.1478577,6.1102448-3.9866867,12.3158417-4.8354492,18.7650452c-0.4404449,3.3467407-0.4932861,6.6966705,0.2306824,10.018692
			c1.1480484,5.2680206,5.2960281,7.5418854,10.3259354,5.5461731c1.542572-0.6120605,2.9303894-1.6122742,4.3931961-2.4273376
			c0.738533-0.4114685,1.4863205-0.8062592,2.3042297-1.2488251c0.7771759,1.3204193,0.3854904,2.3947601,0.0321121,3.4219666
			c-1.901062,5.5258331-7.4285583,9.6008759-13.2827225,9.8345947c-7.2799225,0.2907104-11.9934921-2.8923645-14.418045-9.7985992
			c-1.2575684-3.5821381-1.7123718-7.2996216-1.6798706-11.0847931c0.0091858-1.0692902,0.0013809-2.1386719,0.0013809-3.2080383
			c-0.1556702-0.030365-0.3113556-0.06073-0.4670258-0.0910645c-0.3866577,0.6539612-0.7929764,1.297226-1.1568909,1.9636078
			c-3.3363876,6.1093445-7.5558929,11.4753418-13.1820068,15.6557922
			c-5.2110825,3.8720398-11.0642624,6.0301666-17.5441742,6.3764343c-8.0979347,0.432724-14.2988091-2.770874-18.2998238-9.9023285
			c-3.2542381-5.8003845-4.6151237-12.1521606-4.3053665-18.698822c1.005497-21.2518463,8.3004036-40.3792267,20.2593918-57.8185043
			c3.0427284-4.4370575,6.6611824-8.3953018,10.9961128-11.6377487c2.9080048-2.1751175,6.0519714-3.8524094,9.6692429-4.5653076
			c7.2323761-1.4253159,16.3442307,1.760376,17.254837,12.6784134c1.2193069,14.6197968-3.7865524,27.0190048-14.3532028,37.1310959
			c-7.7152557,7.3834076-16.9569016,12.1770477-27.0689507,15.3963318
			c-0.5323677,0.1694794-1.0688362,0.3265076-1.5981865,0.5047302c-0.1470566,0.04953-0.2753754,0.1546326-0.6105499,0.349472
			c-1.2528343,6.1777191-1.8740616,12.4982452-0.0031624,18.803299c1.1894989,4.0086975,3.6490593,6.9270477,7.924675,7.8582306
			c2.6336708,0.5735931,5.3102074,0.4806366,7.7427635-0.7292328c2.2024384-1.0953827,4.4987564-2.2277985,6.303772-3.845459
			c3.0224838-2.708847,5.9151688-5.6334229,8.4565811-8.7933807c5.9884567-7.4459839,10.8379593-15.6475067,14.7229156-24.3639221
			c8.2947464-18.6104126,16.436058-37.2891922,24.636795-55.9414368c0.2859497-0.6503983,0.5352859-1.3168793,0.9742508-2.4027786
			c-4.8139114,0.8489227-9.1061249,2.5032272-13.7264023,3.3814697c-0.897644-2.5114594-0.5620346-4.913475,0.0016708-7.3153076
			c0.2746582-1.1703262,1.341095-1.2816849,2.2320709-1.5372772c4.1453857-1.1891479,8.2840729-2.410965,12.4652176-3.4618378
			c1.7819366-0.4478912,2.8558044-1.3069077,3.5980377-3.0244675c2.6940765-6.2341003,5.5234985-12.4101715,8.3395538-18.5909538
			c0.6614075-1.4516907,1.4648743-2.8391151,2.213562-4.2504959c0.4434967-0.83601,1.0686951-1.3770142,2.1002655-1.2809601
			c3.1427612,0.2926483,6.1581726,0.9947815,8.8095093,2.8035812c0.5874634,0.4008141,1.1417847,0.8915176,1.597229,1.4361839
			c1.1602783,1.387558,1.5840912,2.9133835,0.7225342,4.6532745c-1.524704,3.0789948-3.0144196,6.1753082-4.5175018,9.2649918
			C149.2103119,74.10672,148.8359528,74.8885269,148.2145996,76.1767197z M56.6069527,150.5325928
			c1.0163231-0.1744232,1.6157684-0.1476746,2.0871391-0.3802948c2.2091751-1.0901489,4.5528679-2.0138397,6.5391617-3.4304047
			c7.2415771-5.1645355,12.5948792-11.9598846,16.4761124-19.9284134c2.1900711-4.4963913,3.5739136-9.2446671,3.916832-14.2353668
			c0.1296692-1.8872986,0.0391998-3.8557739-0.3612595-5.6980896c-0.6255188-2.8775558-2.950943-3.5991745-5.2296219-1.7715378
			c-0.8657837,0.6944199-1.6726074,1.5052109-2.3486176,2.3841553c-1.4110565,1.834671-2.8070068,3.6927719-4.0506287,5.642334
			c-5.0825958,7.9674377-9.2968521,16.3939972-12.9350395,25.1034393c-1.3209076,3.1621552-2.3864784,6.4320374-3.5261002,9.6677551
			C56.9206352,148.6082001,56.8449745,149.3931122,56.6069527,150.5325928z"/>
		<path class="st0" d="M201.2127075,100.0341187c-2.6876984,0.1883087-5.1840057,0.1273956-7.5861664,0.5731506
			c-9.3443298,1.7338409-14.7927551,8.2026596-15.2934723,17.8919373c-0.3057098,5.9164124,0.9820099,11.58815,2.631424,17.2039795
			c1.7320557,5.897171,3.6353607,11.7497101,5.1737671,17.6966858c2.0070343,7.758606,2.4807434,15.605835,0.3032532,23.4505768
			c-1.2786102,4.6064148-3.3288574,8.8326263-6.5305939,12.4050903
			c-6.7306671,7.5099792-15.1328735,10.5439758-25.0398102,8.5726013
			c-8.6475677-1.7207794-14.4647827-7.0142975-17.0048828-15.4506836
			c-2.2601624-7.5067291-1.7808075-15.0274811,1.3404846-22.2649841c1.7787933-4.124588,4.4928589-7.588089,8.438797-9.8483276
			c1.4834442-0.8497467,3.2310944-1.2891541,4.9066925-1.7332306c0.9263611-0.2454987,1.9569397-0.0682373,2.5205536,0.926239
			c0.5403595,0.9533844-0.1355286,1.6526947-0.5803986,2.4008789c-1.59021,2.6743164-3.3533478,5.2662964-4.7082062,8.0557861
			c-2.822052,5.810379-3.5606537,11.9371796-1.6687775,18.17453c0.6369324,2.0999908,1.6245117,4.2123108,2.9232025,5.971283
			c4.1615295,5.636322,11.7326355,6.1481781,16.7957306,1.2854614c3.3691101-3.2357788,4.9204712-7.3971405,5.8045044-11.8598938
			c1.2098083-6.1072845,0.4209595-12.0929871-1.2273407-18.0014343c-1.7158051-6.1503754-3.7191162-12.2287903-5.2127686-18.4310608
			c-2.3615265-9.8059158-1.9010468-19.5341492,2.10466-28.8916779c4.0765533-9.5230255,11.1731567-15.9814529,20.7553711-19.8093491
			c1.438797-0.5747681,2.6915894-0.5818253,4.0622864,0.2002258c2.3186646,1.3229675,4.4873962,2.7973404,5.9689636,5.0695114
			C201.4014587,95.6327591,201.9714966,97.782692,201.2127075,100.0341187z"/>
		<path class="st0" d="M36.4695969,184.7158356c-0.1762352,1.1460571-0.1760597,2.355011-0.5586472,3.427536
			c-1.8567314,5.2050018-5.5916443,8.2948456-11.0412006,9.1040955c-5.3920612,0.8007202-9.5125198-1.3707886-12.4345903-5.8892365
			c-2.9537468-4.5674133-4.0456343-9.7064667-4.3404999-15.0268097c-0.4275808-7.7148895,0.649189-15.3211212,2.1074705-22.8618164
			c4.2935524-22.2016754,12.3420639-43.1058807,22.156517-63.3839035
			c4.0763664-8.4223633,8.4708405-16.676033,13.6307373-24.4931793c1.5811539-2.395443,3.4020996-4.6341248,5.140152-6.9241676
			c1.0177574-1.340992,2.3122559-1.7682686,4.0147133-1.3662224c2.7929268,0.659565,5.3473091,1.7540207,7.2906876,3.8832855
			c2.1008606,2.3018341,2.6303024,4.4090958,0.7864456,7.1174393c-2.8785934,4.2281952-5.6491699,8.5301743-8.4469032,12.8130341
			c-9.0207291,13.8091049-17.1267204,28.1097794-23.4301643,43.3885803
			c-5.1410885,12.4614716-9.0076904,25.2811127-10.7913418,38.6641083
			c-0.7167053,5.3776093-1.4952259,10.7966766-0.6711483,16.2364655c0.2712746,1.7906494,0.7432766,3.621521,1.5118065,5.2509918
			c1.3856831,2.9380188,4.0279694,4.1152954,7.1734142,3.2312927c1.6610012-0.4668427,3.1961575-1.3968353,4.7676868-2.1598053
			c0.839016-0.4073029,1.6346016-0.9039459,2.4498024-1.3602753
			C36.0128899,184.4834595,36.2412453,184.5996246,36.4695969,184.7158356z"/>
		<path class="st0" d="M137.3936768,130.1457214c0.4120331-1.558197,0.631958-2.911705,1.1227417-4.1586761
			c2.5698395-6.5292969,5.193634-13.0375061,7.8307343-19.5400391c0.9592438-2.3652649,1.9827271-4.7054596,3.0205078-7.0376587
			c1.3988647-3.1435547,2.9270172-3.978157,5.2565613-2.9392853c2.8064423,1.2515411,4.161499,4.2883148,2.9421997,6.8489151
			c-1.543335,3.2410736-3.1261902,6.4668884-4.8084106,9.6375275c-3.0662079,5.779274-6.2091827,11.517952-9.3441772,17.2604294
			c-0.4569397,0.8370056-0.9898224,1.6471863-1.5872803,2.3896332c-1.0865631,1.350296-2.0741272,1.4320068-3.1335602,0.1253204
			C138.0791321,131.9747925,137.7871552,130.9568634,137.3936768,130.1457214z"/>
	</g>
</g>
</svg>
