<?xml version="1.0" encoding="utf-8"?>
<!-- Generator: Adobe Illustrator 24.0.0, SVG Export Plug-In . SVG Version: 6.00 Build 0)  -->
<svg version="1.1" id="Layer_1" xmlns="http://www.w3.org/2000/svg" xmlns:xlink="http://www.w3.org/1999/xlink" x="0px" y="0px"
	 viewBox="0 0 503.31924 202.30769" style="enable-background:new 0 0 503.31924 202.30769;" xml:space="preserve">
<g>
	<defs>
		<path id="SVGID_1_" d="M119.54121,123.48558c-10.3198-0.0508-19.8745-0.0937-29.61961-0.1426
			c0.1841-38.4765,0.36771-76.77341,0.5517-115.6426c3.5249,0.0157,7.1075,0.0352,10.69,0.0489
			c5.2168,0.0293,10.45119,0.1992,15.65919,0.0039c2.2817-0.0742,3.4804,0.7597,4.5478,2.709
			c6.1372,11.1757,12.3643,22.2949,18.87791,34.0273c2.8394-4.8574,5.42439-9.2676,7.9722-13.7168
			c3.88179-6.7812,7.6787-13.5996,11.6279-20.3359c0.5918-1.0117,1.8204-2.2793,2.795-2.2871
			c9.1904-0.1289,18.39839-0.0215,27.84271,0.0254c-0.18651,38.6464-0.36812,77.0429-0.55171,115.6035
			c-9.76559-0.0508-19.4024-0.0957-29.37109-0.1426c0.0928-19.9375,0.18649-39.6797,0.28319-59.42191
			c-0.27438-0.0918-0.53709-0.18549-0.81149-0.291c-6.53419,11.3809-13.0918,22.7559-19.97321,34.7031
			c-6.6826-11.86909-13.14059-23.3398-19.60979-34.8105c-0.1988,0.0234-0.4175,0.0469-0.6241,0.0762
			C119.73411,83.65938,119.64081,103.43478,119.54121,123.48558z M287.76291,124.15358
			c9.91211,0.0449,19.5488,0.0898,29.16599,0.1367c0.18362-38.6152,0.36331-76.9199,0.54492-115.3633
			c-9.77731-0.0469-19.31442-0.0937-29.164-0.1387C288.12622,47.48358,287.94452,85.87228,287.76291,124.15358z
			 M405.99341,125.02267c4.15228,0.0215,8.32419,0.041,12.9902,0.0664c-8.41211-15.7734-16.4863-30.8984-24.24411-45.4394
			c3.81641-3.55669,7.6835-6.1778,10.29489-9.7832c8.7363-12.0977,9.207-25.5762,3.9082-39.0938
			c-5.19528-13.2422-16.03708-19.8105-29.22458-20.7812c-16.17392-1.1836-32.4707-0.8262-48.70712-1.1153
			c-0.3418-0.0136-0.6738,0.168-1.16788,0.3067c-0.18561,38.33-0.3692,76.6347-0.55081,115.209
			c9.93161,0.0488,19.5683,0.0957,29.5918,0.1425c0.06439-13.7129,0.13281-27.1816,0.19531-40.6015
			c3.5762-1.0118,5.63278-0.1621,7.25589,3.207c5.64059,11.7383,11.6875,23.2734,17.40231,34.9629
			c1.10159,2.2578,2.42767,2.9492,4.77338,2.8887C394.33521,124.84688,400.16132,124.99538,405.99341,125.02267z
			 M380.3078,193.61838c4.5488,0.0215,8.82422,0.03909,13.15039,0.06059c0.06641-14.1895,0.13281-28.1875,0.2012-42.3125
			c-4.4512-0.0235-8.66019-0.04109-13.1485-0.0625C380.44061,165.63788,380.37421,179.64578,380.3078,193.61838z
			 M369.16519,137.60278c-4.71869-0.0215-9.00967-0.043-13.77139-0.0645c-0.01761,4.56639-0.03909,8.9493-0.0567,13.34569
			c-2.2402,0.14261-3.99408,0.2657-5.68158,0.377c-0.01761,4.6367-0.03912,8.9062-0.06641,13.23441
			c2.0625,0.12691,3.80859,0.23041,5.8183,0.36909c-0.04691,9.7207-0.08591,19.084-0.1347,28.627
			c4.57999,0.02141,8.8652,0.041,13.77139,0.06441c0.04501-9.66991,0.0899-19.1152,0.1348-28.6601
			c2.16412-0.127,3.93951-0.22661,5.81842-0.32431c0.01749-4.48239,0.039-8.76169,0.05658-13.1718
			c-1.97458-0.17389-3.75778-0.3243-5.9512-0.5157C369.12421,146.34888,369.1438,141.96017,369.16519,137.60278z
			 M336.61252,168.27467c-2.93362-0.84959-5.98831-1.33989-8.87302-2.35159c-0.88681-0.3125-1.39459-1.7988-2.08398-2.74411
			c0.95309-0.69139,1.96289-1.99219,2.82028-1.90039c1.3515,0.1601,2.64261,1.2187,3.8887,1.99409
			c0.66791,0.42191,1.1875,1.4805,1.80661,1.49611c3.83398,0.16409,7.69339,0.1113,11.75391,0.13089
			c-0.41022-8.4082-5.03522-13.4883-12.98633-14.8848c-8.83398-1.5527-17.38867,2.02341-20.02737,8.373
			c-0.09372,0.2168-0.1601,0.43559-0.23431,0.6602c-2.82431,8.0215,1.09369,14.8633,10.01752,17.3848
			c2.73639,0.7851,5.53909,1.2988,8.20508,2.22459c0.85352,0.30661,1.9473,1.58981,1.93561,2.40041
			c-0.0098,0.7343-1.2735,1.8222-2.17191,2.09959c-3.15628,0.98631-5.13089-0.62889-6.06448-3.51759
			c-4.46481-0.02341-8.66602-0.041-12.83792-0.0605c-0.0546,6.8515,2.82822,11.373,8.76572,13.61909
			c5.26559,1.998,10.664,2.0742,16.05859,0.50191c6.5957-1.9238,10.0976-6.3652,10.12891-12.7812
			C346.74139,174.26488,343.61841,170.28828,336.61252,168.27467z M380.4465,147.56958
			c4.42969,0.02339,8.58981,0.043,12.88669,0.0625c0.01562-4.0078,0.03711-7.832,0.05472-11.7422
			c-4.4238-0.02341-8.6738-0.043-12.88672-0.0625C380.48361,139.89767,380.46802,143.71608,380.4465,147.56958z
			 M290.95822,150.05978c-11.96292-2.9082-23.52731,4.4688-26.2832,16.74419c-2.7832,12.40231,4.1582,24.3632,15.72458,27.08981
			c11.84961,2.78709,22.7207-2.73831,25-13.00781c-5.207,0.6172-10.3183-1.0625-15.4805,1.92191
			c-4.7558,2.748-10.5527-0.64459-11.0878-5.70709c9.0878,0.045,18.17572,0.08789,27.43552,0.13089
			C309.1965,164.55588,302.50122,152.86647,290.95822,150.05978z M486.09689,194.18867
			c3.8222,0.01761,7.43161,0.0313,11.21292,0.0508c0.10349-20.584,0.19528-40.8223,0.29288-60.99219
			c-3.91208-0.0195-7.5918-0.03511-11.21869-0.0527C486.29019,153.65938,486.19061,173.86838,486.09689,194.18867z
			 M262.67889,145.12228c0.02151-4.4277,0.043-8.58011,0.0625-12.957c-4.99268,0.01369-9.54738,0.32419-13.68019,3.0605
			c-5.2988,3.55669-6.57219,9.17969-7.0195,15.08789c-1.84468,0.1758-3.36719,0.3008-4.8555,0.43361
			c-0.0215,4.56839-0.039,8.8535-0.05949,13.20119c1.69531,0.123,3.1562,0.21681,4.9882,0.3555
			c-0.04489,9.56441-0.0937,19.01561-0.13571,28.6582c4.65041,0.0195,8.9189,0.039,13.8145,0.0625
			c0.04291-9.69139,0.0869-19.1387,0.12981-28.94339c2.4883,0.01169,4.59129,0.0215,6.7144,0.0293
			c0.0195-4.666,0.03909-8.95511,0.06049-13.31641c-2.33588-0.1367-4.43307-0.27539-6.6557-0.39259
			C256.2731,145.49338,259.8801,145.66528,262.67889,145.12228z M452.71802,97.74338c0.03317-6.8672,0.0625-13.1953,0.09567-19.9277
			c9.26361,0.04491,18.3027,0.08791,27.33591,0.13081c0.04489-9.23241,0.08591-18.0546,0.12891-27.2754
			c-9.30661-0.0429-18.3457-0.0898-27.43939-0.1328c0.0195-4.6289,0.04489-8.8593,0.06049-13.7441
			c15.27151,0.0723,30.16989,0.1426,45.07422,0.2168c0.04498-9.3164,0.086-18.2461,0.12888-27.084
			c-25.12299-0.1211-49.92767-0.2363-74.67969-0.3555c-0.1835,38.6055-0.3652,76.91209-0.55069,115.3008
			c25.05069,0.1192,49.87109,0.2383,74.7695,0.3535c0.043-9.0586,0.08398-17.8847,0.12698-27.2675
			C482.5773,97.88788,467.62421,97.81757,452.71802,97.74338z M474.28049,155.47968
			c-5.28708-5.89639-15.81448-6.8476-23.08398-2.48039c-4.87701,2.916-7.38669,7.3418-7.4512,13.58009
			c3.961,0.0175,7.6777,0.1015,11.41019,0.00191c0.69531-0.02541,1.64841-0.69141,2.01172-1.34181
			c1.375-2.43159,3.7207-2.79689,5.60349-1.8633c1.31842,0.6582,2.07422,2.85941,2.77341,4.51961
			c0.36722,0.873,0.0528,2.0605,0.043,3.1718c-10.93158-3.6015-18.16208-2.416-21.88278,3.44139
			c-3.12112,4.9395-2.68951,12.2735,0.93359,16.4102c4.55469,5.1523,12.33591,5.625,20.625,1.2422
			c0.85159,2.2851,6.35159,3.0117,13.15228,1.6992c0.0332-10.0605,0.3887-20.1348-0.05069-30.1797
			C478.22769,160.85858,476.25311,157.68478,474.28049,155.47968z M430.34882,151.36838c-2.27341-0.1172-3.1015,0.832-3.72852,2.957
			c-1.96869,6.7207-4.17191,13.3633-6.61911,21.10941c-2.36719-7.77931-4.37888-14.57811-6.54489-21.3437
			c-0.3399-1.0332-1.35159-2.54691-2.13089-2.6055c-4.24222-0.2715-8.53131-0.15041-13.2012-0.17191
			c4.85349,14.0782,9.5235,27.6192,14.28711,41.1348c0.21878,0.64841,1.23639,1.42191,1.90817,1.4492
			c4.18362,0.16411,8.37311,0.1113,12.53131,0.13091c5.08011-14.19141,10.05661-28.09961,15.21869-42.545
			C437.81171,151.46217,434.07339,151.57938,430.34882,151.36838z M53.64911,148.82347c-5.5083-1.25-10.3276,0.2422-14.2495,4.48241
			c-5.3911-6.33591-11.2847-6.6777-18.2827-1.39059c-0.7173-0.82031-1.3994-2.26761-2.1406-2.32231
			c-3.9185-0.2383-7.8692-0.1386-11.9273-0.15819c-0.0722,14.3985-0.1357,28.3965-0.2021,42.30469
			c4.6152,0.0215,8.9804,0.041,13.4472,0.05861c0.042-8.64261,0.0581-16.9805,0.1206-25.31841
			c0.0269-2.85739,1.1563-4.8027,4.2457-4.7207c2.9975,0.0899,3.3325,2.25391,3.2973,4.6875
			c-0.0361,5.043-0.0513,10.10161-0.0757,15.15631c-0.0151,3.47069-0.0302,6.94919-0.0449,10.3418
			c4.8023,0.0215,9.1055,0.043,13.689,0.06439c0.0151-3.7968,0.0302-7.4043,0.0483-11.02139
			c0.0244-4.459-0.0307-8.9258,0.1162-13.3848c0.0435-1.4707,0.2222-3.3535,1.1006-4.24611c0.9424-0.957,3.0161-1.61909,4.169-1.168
			c1.0351,0.4024,2.0708,2.4239,2.0971,3.74611c0.147,8.666,0.0293,17.31839-0.0102,26.127
			c4.6538,0.02339,8.9336,0.04489,13.5493,0.06639c0.0483-10.9063,0.3682-21.586,0.0337-32.23439
			C62.46801,154.18678,58.61151,149.96997,53.64911,148.82347z M92.79461,166.26688c-0.021,3.16209,0.10751,6.34959-0.19379,9.5078
			c-0.2691,3.0332-2.2822,4.56641-5.1738,4.416c-2.81841-0.1367-4.28281-1.877-4.27351-4.8477
			c0.0093-1.99019-0.0083-3.97459,0.001-5.98439c0.0332-6.4335,0.06351-12.8535,0.0937-19.4062
			c-4.7211-0.0215-8.9951-0.04691-13.5698-0.06841c-0.04539,10.30861-0.3447,20.17-0.0547,30.0079
			c0.1656,5.5332,2.5196,10.31641,7.8819,12.582c5.18449,2.18941,10.0039,1.26559,14.2964-2.5078
			c0.15769-0.125,0.39989-0.13091,0.6972-0.209c0.15189,0.8672,0.29739,1.73239,0.3994,2.41209
			c4.5952,0.0215,8.9688,0.041,13.2461,0.0625c0.0635-14.1992,0.1299-28.1348,0.1988-42.18159
			c-4.5103-0.0215-8.7789-0.04111-13.4644-0.0625C92.85181,155.51288,92.85081,160.89378,92.79461,166.26688z M155.09741,146.53828
			c4.37689,0.0215,8.52831,0.043,12.89549,0.06059c0.0215-4.1387,0.03612-7.9688,0.0605-11.8047
			c-4.414-0.01759-8.5605-0.03709-12.90129-0.05859C155.13351,138.73947,155.11591,142.54808,155.09741,146.53828z
			 M82.12671,96.06178c-15.1831-0.0723-30.13869-0.1426-45.13139-0.2129c0.0332-6.8633,0.0635-13.1992,0.0967-19.9531
			c9.251,0.0429,18.2983,0.0839,27.4829,0.1308c0.0425-9.1328,0.0845-17.8613,0.1328-27.2715
			c-9.3423-0.0468-18.3784-0.0879-27.4482-0.1308c0.0273-4.7207,0.0449-9.043,0.0664-13.7422
			c15.1152,0.0703,30.00679,0.1426,45.01169,0.2129c0.0425-9.3164,0.08501-18.2422,0.12991-27.1758
			c-25.1001-0.1191-49.9165-0.2363-74.7515-0.3555c-0.1846,38.5821-0.3652,76.88091-0.5493,115.3574
			c25.0166,0.1172,49.8242,0.2364,74.83399,0.3555C82.03971,114.25117,82.08171,105.42308,82.12671,96.06178z M137.89471,167.31567
			c-2.84421-0.81639-5.7998-1.2578-8.54781-2.26759c-0.9805-0.35161-1.58689-1.89841-2.35989-2.8887
			c1.08549-0.66791,2.21489-1.89841,3.2412-1.8261c1.21681,0.08,2.35159,1.29489,3.50391,2.0605
			c0.64749,0.4453,1.2222,1.416,1.8555,1.44339c3.8423,0.1523,7.6675,0.09761,11.6035,0.1152
			c0.00591-1.06841,0.12009-1.7637,0-2.4258c-1.06641-6.8613-5.98531-11.4687-13.31641-12.5293
			c-8.6772-1.23831-16.5024,1.9668-19.32469,7.9063c-0.14891,0.30859-0.32711,0.6113-0.44091,0.9433
			c-2.5889,6.8203,0.1553,13.8008,6.81001,16.4317c3.5767,1.41209,7.43359,2.05859,11.07179,3.3242
			c0.96001,0.3418,1.56641,1.6973,2.3399,2.58589c-1.02451,0.7617-2.2124,2.3282-2.9883,2.1367
			c-2.1358-0.52141-4.0874-1.8027-6.0918-2.789c0.0937-0.27541,0.21631-0.543,0.3271-0.8223c-4.187-0.0195-8.373-0.039-12.56-0.0605
			c0.1679,7.4297,3.28609,11.82809,9.8652,13.9648c4.90719,1.5899,9.83199,1.6113,14.7774,0.209
			c6.83879-1.9512,10.38229-6.3672,10.4057-12.9238C148.06221,173.27078,144.93181,169.34108,137.89471,167.31567z
			 M201.85811,165.55978c0.6357,0.6953,1.4785,1.6563,2.2637,1.6895c4.18939,0.18939,8.3672,0.11719,12.8222,0.14059
			c-1.98431-12.1387-11.59081-19.26759-23.77831-18.1348c-11.084,1.02539-19.34569,10.9883-19.1279,23.03909
			c0.1992,12.02341,9.0703,21.19141,21.1172,21.834c10.71869,0.5703,20.33589-7.28909,21.68359-18.043
			c-3.64459-0.01559-7.2598-0.0332-10.8535-0.0488c-0.68269-0.002-1.4502-0.19341-2.0372,0.0547
			c-0.7558,0.3183-1.4765,0.87889-2.04289,1.5136c-3.1514,3.4258-8.377,3.62891-11.6084,0.375
			c-3.3526-3.3515-3.3858-9.3203-0.05371-12.705C193.46751,162.00117,198.71361,162.15747,201.85811,165.55978z M244.66571,84.35278
			c7.06639-0.2442,13.87009-1.9551,20.05029-5.666c11.4043-6.8301,15.66602-17.6641,16.38089-30.6992
			c0.85941-15.3477-6.64258-29.6739-20.01367-35.0645c-6.39601-2.584-13.51221-3.9375-20.40581-4.3164
			c-12.9277-0.7168-25.95801-0.3164-38.9238-0.377c-0.94821-0.0058-1.8701-0.0078-2.92281-0.0156
			c-0.1817,38.7656-0.3653,77.1387-0.5489,115.666c9.75591,0.04501,19.3018,0.0899,29.49712,0.1387
			c0.06248-13.2637,0.12599-26.2227,0.18649-39.7031C233.7888,84.34298,239.23311,84.54218,244.66571,84.35278z
			 M154.32881,192.55788c4.52539,0.02341,8.8027,0.04491,13.1758,0.06441c0.06641-14.18941,0.1328-28.1992,0.1992-42.23241
			c-4.54001-0.0215-8.80861-0.041-13.1758-0.0625C154.46461,164.53438,154.3952,178.54608,154.32881,192.55788z"/>
	</defs>
	<use xlink:href="#SVGID_1_"  style="overflow:visible;fill:#FFFFFF;"/>
	<clipPath id="SVGID_2_">
		<use xlink:href="#SVGID_1_"  style="overflow:visible;"/>
	</clipPath>
</g>
</svg>
