<?xml version="1.0" encoding="utf-8"?>
<!-- Generator: Adobe Illustrator 24.0.0, SVG Export Plug-In . SVG Version: 6.00 Build 0)  -->
<svg version="1.1" id="Layer_1" xmlns="http://www.w3.org/2000/svg" xmlns:xlink="http://www.w3.org/1999/xlink" x="0px" y="0px"
	 viewBox="0 0 300 300" style="enable-background:new 0 0 300 300;" xml:space="preserve">
<style type="text/css">
	.st0{fill:#FFFFFF;}
</style>
<g>
	<path class="st0" d="M119.3406372,78.710144c2.1368103,0.1308365,4.2109299,0.4845734,6.2025146,1.0392532l-9.3134689-24.2721977
		l6.9293823,4.622963c1.560318,1.039257,3.5517578,1.0127563,5.0831528-0.0581474
		c1.53125-1.0757484,2.2288818-2.943924,1.783371-4.756073l-8.5578308-34.6759567l43.4759216,76.8627777
		c1.9769135-0.1865616,3.9686432-0.2836304,5.9988556-0.2836304c0.0243835,0,0.0389099,0,0.0679932,0l-48.1228256-85.0786819
		c-1.1195145-1.9720554-3.4695358-2.8008251-5.5772705-1.9623642c-2.1128845,0.8407316-3.2466278,3.0528021-2.7040634,5.257452
		l9.5945206,38.8773422l-7.3703384-4.9185524c-1.6330032-1.0877151-3.765274-1.0006409-5.2965164,0.2277489
		c-1.5409393,1.2285385-2.10289,3.2878189-1.3905716,5.1244965L119.3406372,78.710144z"/>
	<path class="st0" d="M200.0654449,238.8683777c-1.8462219,0.30513-3.6972809,0.5231934-5.5483398,0.6540222l1.4829407,3.8742981
		l-5.5969543-3.7336121c-2.3212585-0.0025787-4.6472015-0.1358337-6.948761-0.3900909
		c-1.1485901,1.1024017-1.6377106,2.7281494-1.2453461,4.3125458l8.5526886,34.6759644l-24.4613342-43.2456207
		c-2.0786591-0.8262024-4.1187134-1.7541504-6.1006165-2.7934113c-0.8433075-0.4433746-1.6669159-0.9038696-2.4810028-1.3811798
		l31.628006,55.9147491c0.818924,1.460968,2.3162537,2.2897339,3.891098,2.2897339
		c0.5572662,0,1.1289062-0.1017456,1.6767731-0.3223877c2.1125793-0.8382874,3.2563324-3.0503845,2.7134552-5.2527466
		l-9.5896759-38.8796234l7.3653412,4.9161377c1.6283112,1.0877075,3.765274,1.0006409,5.3012085-0.2277527
		c1.5314026-1.2285461,2.0885162-3.2878113,1.3908844-5.1220703L200.0654449,238.8683777z"/>
	<path class="st0" d="M50.337616,170.2843628l-34.0849304-3.9201813l31.9092007-5.0975494
		c-0.2325935-1.7106934-0.3876572-3.515564-0.4458046-5.4152374l-38.9258041,6.2220459
		c-2.2434154,0.3560181-3.8378081,2.2629547-3.7891994,4.5355988c0.0484571,2.272644,1.720078,4.109024,3.9830279,4.3708344
		l43.931427,5.0565033C51.970623,174.3088837,51.0885506,172.3996735,50.337616,170.2843628z"/>
	<path class="st0" d="M130.3210297,239.5831299c-4.584198,31.40979-21.5828247,31.7077942-31.0658951,30.3752136
		c-3.634285-0.5160522-4.8313293-0.438385-5.1364594-1.6982727c-0.3828125-1.5748596,2.4277039-2.0376282,3.8328094-2.8809204
		c14.2707901-8.4919739,6.6677094-16.9259338-4.0508652-25.1273193l-3.9444122,4.9305267l4.928093,3.9466858
		c3.9783325,3.1886292,1.4052582,6.0474548,0.6687088,6.9584503l-3.6489792,4.5648193l1.7833786,1.4269104l-1.6766205,2.0959167
		l-9.3378525-7.4769287c-0.3875046,0.4070129-1.0222931,0.4601746-1.4729462,0.1065979l-1.2067337-0.973999
		c-0.4455032-0.3585815-0.5328751-0.9909515-0.2180557-1.4585571l-0.9203873-0.7366943
		c-0.3878021,0.4046173-1.0274429,0.460495-1.4732437,0.1017609l-1.2065887-0.9691467
		c-0.450798-0.358429-0.5378723-0.9958038-0.2277451-1.4609833l-0.9206848-0.7339783
		c-0.3828125,0.4068909-1.0177536,0.4627686-1.4682541,0.1017609l-1.2114334-0.9692993
		c-0.4506454-0.3610077-0.5378723-0.9932098-0.2229004-1.4608307l-0.8819199-0.7050476
		c-0.3778152,0.4093018-1.0177536,0.4651794-1.4682541,0.1065979l-1.2162704-0.9692841
		c-0.4411163-0.3585815-0.528183-0.9956512-0.2133636-1.4608307l-9.1437187-7.326889l1.6766167-2.0981903l1.783226,1.4320679
		l3.6488266-4.5574036c0.7315521-0.9160004,4.099472-3.1377563,7.7093811-0.2545471l3.9786377,3.1886292l3.5564575-4.446106
		c-9.3134689-7.1521149-15.5013046-14.0669556-5.1847687-20.6161041
		c11.5376511-7.3291473,20.2938614-8.5864563,23.9233093-15.6660461c-3.0671921,0.833313-6.6144104,1.361496-10.6752701,1.361496
		c-11.4696579,0-19.6734619-3.3726196-25.3284149-7.2782745c-15.8794174,8.441391-36.7547684,24.5243378-23.6084862,48.7527771
		c0.0096893,0.0096893,0.0146866,0.0243683,0.0193825,0.0387573c0.1453705,0.2666626,0.2957382,0.5331879,0.4508018,0.8043976
		c0.0096931,0.0218048,0.0243797,0.0436096,0.038765,0.0629883c0.1453743,0.261673,0.3004341,0.5234833,0.4603462,0.7874298
		c0.0193825,0.029068,0.0337677,0.0679932,0.0531502,0.0994873c0.1550636,0.2518311,0.3101273,0.5063782,0.4651871,0.7607727
		c0.0292282,0.0361938,0.0533028,0.0775299,0.0776825,0.1163025c0.1597595,0.2518311,0.3198204,0.4989624,0.4895706,0.7509308
		c0.0239258,0.0461884,0.0530014,0.0920715,0.0870705,0.1382599c0.1646042,0.2445526,0.3246651,0.4892578,0.4941139,0.7412415
		c0.0340691,0.0461884,0.0679893,0.0920715,0.097065,0.1358337c0.164753,0.2471313,0.3440475,0.4966888,0.5184898,0.7485046
		c0.0290756,0.0314941,0.0533066,0.0630035,0.0726891,0.0969238c0.6105576,0.8529968,1.2645798,1.7153778,1.962513,2.5901794
		c0,0,14.3384781,17.0713043,34.0653954,28.5291595c0.7073212,0.4118958,1.4196472,0.8139343,2.1369629,1.2064514
		c0.7173157,0.39505,1.4391785,0.780304,2.1755753,1.1581116c1.4538651,0.7510986,2.9365082,1.4684143,4.4485168,2.1369629
		c0,0,38.1017303,16.1412354,47.7786255-37.3942566c0,0,0-0.0074158-0.0046844-0.0218048v-0.0096893
		c-0.0050049-0.0121155-0.0097046-0.036499-0.0145416-0.0605621c0-0.0050049,0-0.0097046,0-0.0145416
		c0-0.0266571-0.0096893-0.0631409-0.014389-0.1017609c0-0.0072632,0-0.0171204,0-0.0243835
		c-0.0099945-0.0411835-0.0099945-0.0870667-0.0146942-0.1356812c0-0.0121155,0-0.0193787-0.0049896-0.0337677
		c0-0.0485992-0.0046997-0.1065979-0.0046997-0.1745911c0-0.0096893,0-0.0240784,0-0.0387726
		c-0.0049896-0.0629883-0.0049896-0.1356812,0-0.2130585c0-0.0146942,0-0.029068,0-0.0437622
		c0.0046997-0.0773773,0.0046997-0.1621857,0.014389-0.2495575c0-0.0167999,0-0.0339203,0-0.053299
		c0.0099945-0.0920715,0.0195312-0.1888275,0.0292206-0.290741c0.0046997-0.0193787,0.0046997-0.0361938,0.0046997-0.0531616
		c0.0096893-0.1041718,0.0340729-0.2180481,0.0534515-0.3343506c0-0.0169525,0-0.0340729,0.0048523-0.0508728
		c0.0240784-0.1261444,0.0484619-0.2545624,0.0728302-0.3900909c0.0096893-0.014679,0.014389-0.0292206,0.014389-0.0364838
		c0.0289307-0.1477966,0.0678406-0.3004456,0.1112976-0.4601898c0-0.0024261,0-0.007431,0.0050049-0.0146942
		c0.2227478-0.8260498,0.6055603-1.83638,1.2308044-3.0091858c1.4923401-2.8129425,4.4047546-6.5827637,9.9967194-11.1789246
		c-1.1968994-1.0466766-2.3356323-2.1417999-3.4307709-3.2660065
		C131.5762177,229.932724,130.3210297,239.5831299,130.3210297,239.5831299z"/>
	<path class="st0" d="M81.7425613,254.4302521l-0.3828125-0.3077087c-0.4698792-0.3755341-1.1581268-0.3004303-1.5359421,0.1721802
		c-0.0193787,0.0266571-0.0290756,0.0508728-0.0486069,0.0775299l1.22612,0.9836884l-0.3488922,0.4311066l0.4942627,0.3925171
		l0.3442001-0.4311218l1.182045,0.9497681c0.0193863-0.0219727,0.0484619-0.0411987,0.0631485-0.0631714
		c0.3828125-0.4748535,0.3101273-1.1628113-0.1597595-1.5383453l-0.3441925-0.273941l7.7240753-9.6403961l-0.489418-0.3925171
		L81.7425613,254.4302521z"/>
	<path class="st0" d="M265.6280212,25.889246l2.0061035-2.4953938l-0.489563-0.3925018l-2.0302124,2.5294647
		c0.033783,0.031496,0.0630188,0.0604191,0.0967712,0.0894928C265.3421021,25.7244911,265.4874878,25.8142891,265.6280212,25.889246
		z"/>
	<path class="st0" d="M110.8704758,255.8597412c-1.0324402,1.2842712-0.8240814,3.1618347,0.4601898,4.18927
		c1.284111,1.0319824,3.1642532,0.8236084,4.1866989-0.4627686c1.032135-1.2841187,0.8236237-3.1619873-0.4601898-4.1916962
		C113.7776031,254.3672638,111.8929214,254.5756226,110.8704758,255.8597412z M114.1507187,256.5358582
		c0.6543274,0.5231934,0.7560883,1.4850769,0.2327499,2.1418152c-0.528183,0.6565857-1.4827881,0.7632141-2.1418076,0.2350159
		c-0.6541748-0.5257568-0.765625-1.4853516-0.237442-2.1393738
		C112.532402,256.1141357,113.4918518,256.0076904,114.1507187,256.5358582z"/>
	<path class="st0" d="M74.9247894,248.9692841l-0.3390503-0.2713623l7.7237701-9.6407166l-0.4892654-0.3971863l-7.7240753,9.6428223
		l-0.3828125-0.30513c-0.4701843-0.3755341-1.1631241-0.2981567-1.5362396,0.1694489
		c-0.0240784,0.0243835-0.0337677,0.053299-0.053154,0.0776825l1.2259674,0.9836884l-0.3442001,0.4336853l0.4945679,0.3900757
		l0.343895-0.4289856l1.1823578,0.9499054c0.0243759-0.0218048,0.0483017-0.0413361,0.0629883-0.0654144
		C75.4723511,250.0353394,75.3948212,249.3470917,74.9247894,248.9692841z"/>
	<path class="st0" d="M231.4947662,44.9960632l-0.4942627-0.3925056l-1.5312347,1.916481
		c0.1647491,0.1332588,0.348877,0.244709,0.5378723,0.3317833L231.4947662,44.9960632z"/>
	<path class="st0" d="M262.8027954,36.9642868c0.1356812-1.390873,2.5730896-6.0135365,7.3365784-4.7877235
		c4.7680359,1.2283897,11.1256104-6.7063198,9.0033264-12.0923347c-2.3065491-4.8869076-6.2511292-5.1655359-12.3517151-2.3527489
		l0.6589966,1.1508579l-1.6185913,0.9279556l-0.717041-1.2526188c-0.6394653,0.3319321-1.3084717,0.6929379-1.9964294,1.0831699
		c-1.4779358,0.84058-4.6275024,2.6457615-8.5040741,4.8699455l0.7218628,1.2742729l-1.6184692,0.9281063l-0.7220154-1.2697296
		c-3.0770264,1.7639923-6.4934235,3.7336254-9.8610382,5.6696415l0.7365417,1.2816906l-1.6186066,0.923111l-0.7315521-1.2769966
		c-3.6925964,2.1296921-7.2443542,4.1745834-10.0937958,5.8150101l0.9109955,1.5990868l-1.6183167,0.927803l-0.9156799-1.5942383
		c-2.8881989,1.6645012-4.7392731,2.7329826-4.7392731,2.7329826s-1.351944,1.0492516-1.7203827,1.5409393
		c-0.4458008,0.579216-0.280899,2.1466522-0.280899,2.1466522l-0.0339203,7.0287132l0.6396332-0.7969666l0.0677032,0.0555725
		l-0.7073364,0.8844948v0.2592468l-0.1259766-0.1019135l-10.3506165,12.9211044l1.0615234,0.8480072l10.3260651-12.8846169
		l0.4892731,0.3899307L214.0986481,66.702301l3.3386993,2.6701431l10.3165283-12.8896065l0.4942627,0.3971939l-10.282608,12.8364601
		c0.9691467-0.0605698,1.9285889-0.0920715,2.897583-0.0920715c0.8673859,0,1.730072,0.0266571,2.5974579,0.0678406
		l8.1262665-10.1469307l0.4894257,0.3971977l-7.8452301,9.7933426c1.6861725,0.1088791,3.3580933,0.2980118,5.0201721,0.5619583
		l6.1540527-7.6877327l0.494278,0.3950768l-5.9407043,7.4139481c0.3875122,0.067688,0.7848511,0.1379471,1.1676636,0.2130585
		l6.4204254-8.012394c1.1098175-1.1678162,2.956192-2.9823875,3.9009552-3.2125587
		c5.2380676-1.2816925,13.0348358-1.577282,17.1682129-11.3922806c1.6863098-4.0051384,2.8832092-8.0608521,4.1432495-11.2591782
		L262.8027954,36.9642868z M225.2922516,52.7369461l-0.8383026,1.0418282l-0.4895782-0.3900795l0.8336182-1.0442543
		l4.6712799-5.8244019c-1.1001434-0.8794975-1.279129-2.4931183-0.3975067-3.5932503
		c0.8820648-1.1022491,2.4906921-1.2816925,3.59552-0.3996201c1.1001282,0.8819199,1.2794189,2.497818,0.3975067,3.5979462
		c-0.7462463,0.930378-2.0158234,1.1968918-3.0576477,0.7267075L225.2922516,52.7369461z M229.1155243,55.7995911
		l-0.4942627-0.3925056l0.4942627,0.3971977l-0.8384552,1.0419807l-0.4891205-0.3949242l0.833313-1.0442543L241.8742981,38.86623
		c-1.0660553-0.8891907-1.2358093-2.4810066-0.3634338-3.5714455c0.8819275-1.0998268,2.4907074-1.2766953,3.6003723-0.3947754
		c1.0951385,0.8817711,1.2792664,2.4929695,0.3925018,3.5979462c-0.7559357,0.937645-2.0448914,1.2015877-3.091568,0.7048988
		L229.1155243,55.7995911z M232.1003418,59.9086075l-0.4892731-0.3947754l0.8334656-1.0442505l20.9044189-26.0894966
		l-0.0049896-0.0046959c-1.099823-0.8820705-1.2839661-2.4956951-0.3972015-3.5955219
		c0.8817749-1.1001282,2.4953918-1.2794209,3.5955353-0.3999214c1.0999756,0.8844948,1.2744141,2.4981174,0.3924866,3.5979443
		c-0.741394,0.930378-2.0012817,1.1970444-3.0432587,0.7294312L232.938797,58.8620834L232.1003418,59.9086075z
		 M236.7619171,61.9268494l-0.8383179,1.0442505l-0.4845581-0.3949242l0.8336029-1.041832l28.8417053-36.0035286
		c-1.0127563-0.8964577-1.1534119-2.4448166-0.2957153-3.5060291c0.8770752-1.1022491,2.4906921-1.2791176,3.5958252-0.3996201
		c1.099823,0.8817692,1.2791138,2.4978161,0.392334,3.5979462c-0.7704773,0.9691429-2.1177368,1.2233906-3.178772,0.6661339
		L236.7619171,61.9268494z"/>
	<path class="st0" d="M118.8413773,250.7137451c1.0227509-1.2842712,0.8142319-3.1618347-0.4698868-4.1892853
		c-1.284111-1.0319824-3.159256-0.8236237-4.1866989,0.4651947c-1.0274429,1.2792664-0.8237686,3.157135,0.4651871,4.1842804
		C115.9340973,252.2062225,117.8092346,251.9978485,118.8413773,250.7137451z M115.5609741,250.0376129
		c-0.6588669-0.5231934-0.765625-1.4826355-0.2424316-2.139389c0.5283279-0.6588593,1.49263-0.7606201,2.1469498-0.237442
		c0.6538696,0.5257568,0.7653198,1.4853668,0.2372894,2.1418152
		C117.1745987,250.4569092,116.2149963,250.5633698,115.5609741,250.0376129z"/>
	<path class="st0" d="M78.7480621,252.0340424l-0.3392029-0.2736359l7.7192307-9.6407013l-0.4895706-0.3972015l-7.7190781,9.645401
		l-0.3828125-0.3078461c-0.4698792-0.3753967-1.1581268-0.3004456-1.5409393,0.1721649
		c-0.0193787,0.0218048-0.0290756,0.0508881-0.0484543,0.0749664l1.2308121,0.9836731l-0.3440475,0.4337006l0.4845734,0.3925018
		l0.3487396-0.4312744l1.1875,0.9497681c0.0192337-0.0240784,0.0433121-0.0411987,0.0626984-0.067688
		C79.2956238,253.0976868,79.2229385,252.4097443,78.7480621,252.0340424z"/>
	<path class="st0" d="M150.4065247,171.3916168l0.0066681-0.0083313c5.1626587,3.4631653,11.4661865,5.2392731,17.7432098,5.2392731
		c13.412796,0,19.9207458-4.719574,19.9207458-14.3577118v-8.5163422c0-3.0456848-3.2563324-5.9191895-6.8374634-5.9191895
		h-7.0746002l0.2615204,1.2382202c0.0583038,0.0169678,0.8529968,3.5155792,0.8529968,7.5472107v4.3028412
		c0,2.1175842-0.4701843,4.0608673-5.8343964,4.0608673c-3.8426514,0-8.0681152-0.7772827-11.350647-3.3535461
		c-0.0699463-0.054657-0.1364288-0.1149292-0.2053375-0.1712646c-0.3494873-0.2860413-0.6909637-0.5870819-1.0162354-0.916748
		c-0.4351959-0.439743-0.841629-0.9291687-1.2256622-1.45401c-0.1205292-0.1644592-0.2288055-0.3481445-0.3438873-0.521225
		c-0.2705994-0.4084015-0.5280304-0.8374023-0.7657776-1.2954712c-0.1729279-0.3313293-0.3478394-0.659317-0.5021362-1.0178986
		c-0.2047272-0.473526-0.3803864-0.9889832-0.5496826-1.512619c-0.0492249-0.1524963-0.1108551-0.2874146-0.1568909-0.4442902
		c-0.2032166-0.690979-0.3759918-1.4244995-0.5137939-2.2037506c-0.1185608-0.6646118-0.2066956-1.3693695-0.274231-2.1004639
		c-0.0829926-0.8941803-0.133255-1.8300171-0.133255-2.8265686c0-0.6568909,0.0446625-1.2974396,0.1159821-1.9273834
		c0.0204468-0.1818695,0.0545197-0.3581238,0.080719-0.5377197c0.0660248-0.4506531,0.144455-0.8961639,0.2454681-1.3313599
		c0.0684357-0.2952881,0.1403656-0.5886078,0.224411-0.8763275c0.0557251-0.1926117,0.1178131-0.3822021,0.1799011-0.5710297
		c0.0972137-0.2905884,0.2036743-0.5760345,0.3167877-0.8578491c0.0984344-0.2454681,0.2041321-0.4869843,0.3143616-0.7254944
		c0.1126709-0.2436523,0.2297211-0.484726,0.3544922-0.7207947c0.1200867-0.2277527,0.2469788-0.4509583,0.3781281-0.6715851
		c0.1379395-0.2319946,0.2801361-0.4609528,0.4299011-0.6846161c0.1415863-0.2117004,0.2896881-0.4182434,0.4414215-0.6222229
		c0.1583862-0.2127533,0.3208771-0.4223328,0.4900208-0.6266022c0.1708069-0.2057953,0.3482819-0.4059906,0.5299988-0.6026917
		c0.4520111-0.4906311,0.9382477-0.9497528,1.4534149-1.3811798c0.4130859-0.350708,0.8531494-0.6803741,1.3119659-0.9883728
		c0.5643768-0.3811493,1.1498108-0.7376099,1.7688446-1.0512238c0.6926422-0.3496399,1.420105-0.6446228,2.1708832-0.9084167
		c0.6743164-0.2330475,1.3723907-0.4265747,2.0912323-0.5828552c0.8545074-0.1862488,1.7332458-0.3258667,2.6386414-0.3958282
		c0.531662-0.0413361,1.0689392-0.0701141,1.6174164-0.0701141c2.1686096,0,4.2813416,0.2135162,6.2706604,0.5834503
		c0.225174,0.0413513,0.4556427,0.0773926,0.6770325,0.1231232c1.3141022,0.2737732,2.5611115,0.6235809,3.7204437,1.0371246
		c0.1515808,0.0537567,0.2958984,0.1103973,0.4421844,0.1661224c1.755661,0.6653748,3.2975006,1.4765778,4.5074158,2.4125671
		l0.2469788,0.200943h1.7446136v-4.6131287c0-1.4120636-0.3248138-2.8456421-0.9860992-4.2007828l0.0024261-0.0028763
		c-0.0145416-0.028923-0.0339203-0.0579987-0.0486145-0.0894928l-0.0028839,0.0036316
		c-0.0357361-0.0713196-0.0794983-0.1402206-0.1170502-0.2110901l0.0231781,0.0183258
		c-0.1026764-0.1862564-0.2106476-0.3696365-0.3193665-0.5528641c-0.0298309-0.0492172-0.0546722-0.0994949-0.085556-0.148407
		c-0.0007629-0.0012054-0.0015259-0.0025711-0.0022736-0.0037842l-0.0003052,0.0003052
		c-0.1155396-0.1824722-0.2513733-0.3581314-0.3800812-0.5363617l0.0072632-0.008934
		c-0.0202942-0.0281677-0.0501251-0.0528488-0.0708618-0.080864c-0.3594971-0.4866867-0.7665405-0.9550629-1.2276459-1.4010162
		c-0.0617828-0.0596619-0.1284027-0.1161423-0.1920013-0.1750488c-0.631012-0.5845184-1.3536224-1.1243591-2.1683044-1.6112061
		l0.0099945-0.0125656c-0.0851135-0.0507278-0.1833801-0.0928268-0.270462-0.142189
		c-0.264389-0.1505203-0.5390778-0.2937775-0.8222504-0.4324875c-0.166275-0.0811615-0.33284-0.1614227-0.5053253-0.2381973
		c-0.3102722-0.1384048-0.6338806-0.2671127-0.9651947-0.3909836c-0.1129761-0.0422516-0.2141266-0.0928268-0.3295135-0.1334076
		l0.0305939,0.0245285c-0.400238-0.1412811-0.8157501-0.2704544-1.2458038-0.3893204l0.0086212-0.0109024
		c-0.2180481-0.0604248-0.4411011-0.1163025-0.6688538-0.1696014l-0.0019684,0.0024185
		c-0.4040222-0.0967636-0.827713-0.1768646-1.2565613-0.2531891l-0.0254364-0.0204391
		c-0.0966187-0.0162048-0.2042847-0.024231-0.3021088-0.0396729c-0.4091492-0.0666275-0.8337555-0.1188736-1.2650299-0.1661224
		c-0.1268921-0.0137787-0.2422791-0.036644-0.3713074-0.0487595l-0.0060577,0.008934
		c-0.5625458-0.0531464-1.145401-0.0872192-1.7452087-0.1058426l0.0116577-0.0145416
		c-0.1500702-0.0046921-0.30513-0.0046921-0.4601898-0.0046921l-0.0027313,0.0039368
		c-0.1117554-0.0018158-0.2159271-0.0105972-0.3289032-0.011055l0.002121-0.0025711
		c-0.053299,0-0.1114502-0.0024261-0.1503601-0.0024261c-0.0626984,0-0.1161499,0.0024261-0.1744537,0.0024261l-0.0031738,0.0046921
		c-0.239563,0.0009079-0.4683685,0.0233154-0.7061157,0.0281677l0.0163574-0.0231705
		c-0.2518311,0.0022736-0.5037994,0.0096893-0.7559357,0.0216522l-0.025589,0.0321045
		c-18.0998077,0.6841507-30.604187,12.4886246-30.604187,29.2021103c0,2.7522125,0.3676605,5.2822876,0.9823151,7.6376038
		l-0.0322571,0.0405884c0.0095367,0.0361938,0.0192413,0.0702667,0.0239258,0.1017609l0.0352783-0.0436096
		c0.1075287,0.405365,0.2062531,0.8163452,0.3302765,1.2097626l-0.0310516-0.0249939
		c0.0436096,0.147644,0.0870819,0.2980194,0.1453705,0.4456635l0.0004578-0.0006104
		c0.0772247,0.2322998,0.1799011,0.4450531,0.2627258,0.6730957l-0.0257416,0.0325623
		c0.2218475,0.6016235,0.4765472,1.1772156,0.7345886,1.7497559c0.0528412,0.1176605,0.0962982,0.2428894,0.1508179,0.3593445
		c0.3526764,0.7523041,0.7332153,1.4820404,1.1497955,2.181778l0.0098419-0.0124054
		c0.1141815,0.1926117,0.2310791,0.3822021,0.3498077,0.5708771l-0.01091,0.0134888
		c0.2618256,0.4143066,0.5331879,0.8164978,0.8140869,1.2136993c-0.0119629-0.0246887-0.0040894-0.0540619-0.0142365-0.0795135
		c0.1128082,0.159317,0.2162476,0.3273926,0.3323822,0.4835205c-0.0024109-0.0019684-0.0056-0.002121-0.0080261-0.0040894
		c-0.0337677-0.0268097-0.0579987-0.0605774-0.0870667-0.0920715c0.0572357,0.0779877,0.1247711,0.1464386,0.1827698,0.2238159
		c0.2512207,0.3334503,0.522583,0.6455383,0.7881927,0.964447c0.2198792,0.2639465,0.4206696,0.5462036,0.652359,0.7983398
		l0.0169525-0.0212097c0.1430969,0.1584015,0.2721252,0.3314819,0.4187012,0.4859314l-0.0043945,0.0054626
		c0.0121155,0.0127106,0.0269623,0.0222473,0.0390778,0.0349731c0.8843384,0.9279633,1.848938,1.763092,2.8509369,2.5496063
		c0.1046448,0.0823822,0.1927795,0.186264,0.2984772,0.2669678l0.0190735-0.0237732
		c0.1665649,0.1268921,0.329361,0.2589417,0.4988098,0.3820496l-0.0139313,0.0174255
		c0.1300812,0.0953979,0.2648468,0.1841278,0.397049,0.2758942c0.0961456,0.0672302,0.1916962,0.1343231,0.2884674,0.2003479
		C150.2923584,171.311203,150.3482361,171.3526917,150.4065247,171.3916168z"/>
	<path class="st0" d="M92.5730438,218.4047699l3.3287048,2.6699829l-10.4132996,13.003479
		c0.1694489,0.1261444,0.3392029,0.2497101,0.5088043,0.3757019l10.3989105-12.9866791l3.3337021,2.6701508l-10.268074,12.8216095
		c0.1697464,0.1212921,0.3393478,0.2472839,0.5089493,0.3684235l10.2533875-12.7951202l3.32901,2.6698456l-10.1467819,12.669281
		c0.1647491,0.1259918,0.3345032,0.2542419,0.4942627,0.3803864l10.1420822-12.6547394l1.3278809,1.061203
		c1.6328583,1.3059235,4.0216446,1.0419922,5.3301392-0.5910187l2.5680771-3.2054443
		c1.3131943-1.6380005,1.0466766-4.026947-0.5910263-5.3351288l-1.322876-1.0613708l4.8166428-6.0109558l1.3275757,1.0610657
		c1.6283112,1.3084869,4.0219421,1.0442505,5.3304367-0.5887604l2.5680771-3.2054443
		c1.3084946-1.6376953,1.041832-4.0242157-0.586174-5.3327179l-1.3278809-1.0610504l5.8150101-7.2564697
		c-0.2761993,0.0168152-0.557251,0.0314941-0.8433075,0.0411987l-5.460968,6.8227692l-3.3340073-2.6701508l3.4357681-4.2858887
		c-0.2568283-0.0193787-0.5039597-0.0436096-0.7509384-0.0679932l-3.1739426,3.9566803l-3.3291626-2.6675568l1.6427002-2.0523224
		c-0.2327423-0.053299-0.4554977-0.1065979-0.6785507-0.1597443l-1.4585648,1.8218384l-3.3337021-2.6722717l0.3828125-0.4772949
		c-0.2033691-0.0776825-0.4168777-0.1550751-0.6155548-0.2327576l-0.2615204,0.3151245l-1.0904388-0.8820648
		c-0.6735535-0.290741-1.3178787-0.5984497-1.9381332-0.913269c-0.2566681-0.0436096-0.5234909-0.0558777-0.780159-0.0436096
		c-0.8334656,0.4554901-1.7397614,0.9035797-2.7039108,1.3203125c-0.028923,0.0314941-0.0629959,0.0582886-0.0823746,0.0920563
		l-2.5682373,3.2080231c-1.3131866,1.6354218-1.0565109,4.0219421,0.5861816,5.3325653l1.2745743,1.0153198l-4.8213348,6.013382
		l-1.2698822-1.0151672c-1.6377029-1.3107758-4.0219421-1.0489502-5.3301392,0.5887451l-2.5730743,3.2054443
		c-1.3084946,1.635437-1.0418243,4.0219421,0.5911789,5.3327179l1.269577,1.0175934l-10.529892,13.1391602
		c0.1697464,0.1261444,0.3345032,0.2568359,0.4991074,0.3804016L92.5730438,218.4047699z M112.3484192,209.3917236
		l3.3337021,2.6701508l-4.8116455,6.0109558l-3.3390045-2.6698303L112.3484192,209.3917236z M108.5248413,206.3292389
		l3.3340073,2.6699829l-4.8166428,6.011261l-3.3386993-2.6699829L108.5248413,206.3292389z M104.7015686,203.2644653
		l3.3340073,2.6699982l-4.8166428,6.0135345l-3.3340073-2.6701508L104.7015686,203.2644653z"/>
	<path class="st0" d="M242.4121704,39.2028542l1.7830811-2.2264557l-0.4892731-0.3925018l-1.8316803,2.2823334
		c0.014389,0.0046921,0.0193787,0.0168076,0.0339203,0.0265007
		C242.0584412,39.0187187,242.2280426,39.1204796,242.4121704,39.2028542z"/>
	<path class="st0" d="M89.4667892,244.7898407l3.9395676-4.918396c-1.1242065-0.8504181-2.2776413-1.6985779-3.4356155-2.5440063
		l-3.8426514,4.7922668L89.4667892,244.7898407z"/>
	<polygon class="st0" points="223.0292969,52.2378349 222.8306274,52.4851189 222.9033203,52.538269 223.0292969,52.3809357 	"/>
	<path class="st0" d="M207.7848206,71.4100723c0.7218628-0.1988297,1.4535675-0.3828125,2.1804199-0.5451431l2.8105164-3.513298
		l-1.0660553-0.8479996L207.7848206,71.4100723z"/>
	<polygon class="st0" points="212.4800262,65.4062271 211.6467133,66.4504776 211.7097015,66.5036316 212.5527039,65.4593735 	"/>
	<path class="st0" d="M230.666153,36.5209007c-0.0631409-0.1623306-0.5330353-1.6136246,0.5911713-2.9390793
		c1.1872101-1.4099503,0.445816-2.4931202-0.6155548-3.1471405c-1.0659027-0.6517487-1.4826355,0.3997707-2.0981903,0.3850822
		c-0.6105652-0.0143852-0.9641418-0.6055622-2.131958,0.0583c-0.0145416,0.004694-0.0192413,0.0096912-0.0292358,0.0168095
		c-0.0046844,0.0049973-0.014389,0.0072689-0.0240784,0.0122662v0.004694
		c-1.1726532,0.6688595-0.8433075,1.2720013-1.1387329,1.8026066c-0.3004456,0.5380249-1.4199524,0.3635788-1.3955688,1.6112022
		c0.0193787,1.2477722,0.5717926,2.4373932,2.393631,2.1296921c1.5992432-0.2663651,2.5877686,0.7147446,2.8108215,0.95718
		l0.7753143,1.3760338c0.5084991-0.2930145,1.0560608-0.6057167,1.6230011-0.9326515L230.666153,36.5209007z"/>
	<path class="st0" d="M134.8711548,166.405365c0-0.0652618,0.0046997-0.133255,0.0046997-0.200943v-0.6010284v-1.0101776v-1.2769928
		h-0.7026215h-0.014389h-0.0969238h-1.6476898c-2.1256104,0-3.7693634-0.2298737-5.01577-0.7695618
		c-0.0854111-0.0370941-0.1665726-0.0776825-0.2481918-0.1178131c-0.3429871-0.1680908-0.6593246-0.3579712-0.9364395-0.58255
		c-0.0222549-0.017868-0.0492096-0.0317993-0.0710144-0.0501099c-0.2874146-0.2421417-0.5286407-0.5274353-0.7462463-0.8383179
		c-0.0529938-0.0757141-0.1026688-0.1550598-0.1515732-0.2351685c-0.1933746-0.3155823-0.3641891-0.6550751-0.4968414-1.0401611
		c-0.006813-0.0196838-0.016655-0.0357361-0.0233231-0.0555725c-0.1350708-0.4050751-0.2280502-0.8629913-0.3008881-1.3493805
		c-0.0180206-0.1200867-0.0339203-0.2434998-0.0481491-0.3687286c-0.0581512-0.5078888-0.0975189-1.0418396-0.0975189-1.6381531
		v-24.9845276c0-0.8973694-0.0743561-1.7217407-0.1997375-2.494339c-0.0417938-0.2580261-0.1188736-0.4791107-0.1742935-0.7232208
		c-0.1103897-0.4866867-0.226387-0.9668655-0.3890228-1.3990479c-0.0979767-0.2612152-0.2247162-0.4907761-0.3413162-0.7321548
		c-0.1732407-0.3578262-0.3525314-0.7079315-0.5652847-1.0227509c-0.1544571-0.2291107-0.3281479-0.4356613-0.5028992-0.6420593
		c-0.2272949-0.2678757-0.466095-0.5212173-0.7268524-0.7510834c-0.1034241-0.0913086-0.1803513-0.2132111-0.2889252-0.2986145
		c-0.0172653,0.0095367-0.0336227,0.021347-0.0508804,0.031044c-1.5884857-1.2409592-3.6857758-1.8871078-6.248703-1.8871078
		h-3.8278198v9.5462112v26.6490326c0,1.2023468,0.095253,2.3195801,0.233963,3.3975983
		c0.0327072,0.2545471,0.0661697,0.5077362,0.1064529,0.7553253c0.1670227,1.0244141,0.3829575,2.0038605,0.6797638,2.9075928
		c0.0461807,0.140976,0.109024,0.2657471,0.1582413,0.4037018c0.1718674,0.4800262,0.341774,0.961731,0.5512009,1.4058685
		c0.0246811-0.0053101,0.0534515-0.0062103,0.0782852-0.0113678c2.2275162,4.6932373,6.5399017,7.3300629,12.7268219,7.7054596
		l-0.0508804,0.0637512c0.372818,0.0195312,0.7509384,0.0314941,1.138443,0.0411835l-0.0336151-0.0268097
		c0.1605148,0.0028839,0.2974014,0.0342255,0.4601898,0.0342255c0.0540619,0,0.0967636-0.0080261,0.1502151-0.0084686
		l-0.0048447,0.0060425c0.2760544-0.0025635,0.5525665-0.0072632,0.8189316-0.0243683l0.0231628-0.0289307
		c0.2051849-0.0116577,0.4215851-0.0157471,0.6166229-0.0348206l0.0192261,0.0154419
		c0.0478516-0.0046997,0.0834351-0.018631,0.1306915-0.0237732c0.4526215-0.0493622,0.8572388-0.1367493,1.2548828-0.2289581
		c0.1596069-0.0371094,0.3414764-0.0570984,0.4922943-0.1011505c0.4816895-0.1408386,0.9143219-0.3236084,1.310318-0.5392456
		c0.0381622-0.020752,0.0887299-0.0305939,0.1261292-0.0519409c-0.0005951-0.0004578-0.001358-0.0007629-0.0019684-0.0012054
		c0.0030365-0.0018158,0.0072784-0.0025787,0.0104523-0.0043945c0.0004578,0.0004578,0.0010681,0.0004578,0.0015106,0.0009003
		c0.1016083-0.0605621,0.2080688-0.1211395,0.3001404-0.186554l-0.0284729-0.0227203
		c0.3831177-0.2560577,0.722168-0.556488,1.0166931-0.9008484l0.0245361,0.0196991
		c0.2168427-0.2518311,0.4077911-0.5309143,0.5783081-0.8330231c0.0249786-0.0442047,0.0422363-0.0975189,0.0661621-0.1429443
		c0.1770325-0.3345032,0.3246765-0.7033844,0.4505005-1.098465c0.0405884-0.1273499,0.0779877-0.2596893,0.1134186-0.3932495
		c0.1034393-0.3909912,0.1868744-0.8084869,0.2475891-1.2553558c0.0127258-0.0941772,0.0331726-0.178833,0.0440674-0.275589
		c0.0028839-0.0260468,0.0089417-0.0480042,0.0118103-0.0742035l-0.0075684-0.0060577
		c0.0552673-0.5113831,0.0834351-1.0607605,0.089035-1.6437683L134.8711548,166.405365z"/>
	<path class="st0" d="M265.7783813,15.9458332c-0.0629883-0.1621799-0.5283508-1.6110497,0.5861816-2.9389277
		c1.1918945-1.4125271,0.4458008-2.4929705-0.6105652-3.1471424c-1.0660706-0.6517487-1.4876404,0.3996201-2.1031799,0.3899288
		c-0.6055908-0.0168085-0.9593201-0.6079855-2.1271362,0.0534544c-0.014679,0.0071173-0.0193787,0.0121145-0.0340576,0.0168085
		c-0.0046997,0.0074205-0.0144043,0.0096912-0.0192566,0.0171118c-1.1726379,0.6711321-0.8384399,1.2720013-1.1388855,1.8048782
		c-0.3004456,0.5378752-1.4196472,0.3610058-1.3955688,1.608778c0.0196838,1.2503471,0.5769348,2.4375477,2.3889465,2.1321163
		c1.6040955-0.2689371,2.5927734,0.7123203,2.8105164,0.9594517l0.9789734,1.7153835
		c0.5766602-0.2980118,1.1387634-0.5766392,1.6766357-0.8261948L265.7783813,15.9458332z"/>
	<path class="st0" d="M242.1941223,29.4581165c-0.0581512-0.1646023-0.528183-1.6136227,0.5861816-2.9411983
		c1.1921844-1.4101048,0.4556427-2.4906998-0.6105652-3.1448708c-1.0660553-0.6543236-1.4826355,0.3996201-2.098053,0.3828106
		c-0.6154022-0.0121136-0.9546051-0.6034431-2.1272583,0.0605717l-0.0050049-0.002573
		c-0.0096893,0.0049973-0.0193787,0.0146885-0.0240784,0.0169601c-0.0096893,0.0074196-0.0193787,0.0098419-0.029068,0.0171108
		c-1.1678162,0.6735554-0.8336182,1.2744236-1.1340485,1.8074532c-0.3004456,0.532877-1.4196472,0.3584309-1.4002686,1.6063557
		c0.0240784,1.2501945,0.5814972,2.4398174,2.3986359,2.1319637c1.589386-0.2689381,2.5874634,0.7123203,2.8055115,0.9596024
		l0.9644623,1.6885834c0.5378723-0.3075523,1.0805817-0.6176796,1.6136169-0.9278049L242.1941223,29.4581165z"/>
	<path class="st0" d="M103.9894028,262.8401489c-1.032135,1.286377-0.8237686,3.1592407,0.460495,4.1914062
		c1.2838135,1.0272827,3.159256,0.8214722,4.191391-0.4627686c1.027298-1.2841187,0.8236237-3.1642761-0.4603424-4.1914062
		C106.8871384,261.3475037,105.0166931,261.5584412,103.9894028,262.8401489z M107.2602615,263.5159607
		c0.6590195,0.5234985,0.7703171,1.4827881,0.2421341,2.1371155c-0.528183,0.661438-1.4826355,0.765625-2.1418076,0.242157
		c-0.6590195-0.5304565-0.7606277-1.4876404-0.237442-2.1416626
		C105.646637,263.0943909,106.611084,262.9902039,107.2602615,263.5159607z"/>
	<path class="st0" d="M253.6687775,22.8509808c-0.0581512-0.1671772-0.5331879-1.6136246,0.5861816-2.9411983
		c1.1871948-1.4102554,0.4508057-2.4906998-0.6152649-3.1448708c-1.0660553-0.6543236-1.4779358,0.3949261-2.0981903,0.3852348
		c-0.6058655-0.0146885-0.9593048-0.6082897-2.1274261,0.0579967c-0.0143738,0.0049973-0.0193787,0.0072689-0.0337677,0.0146885
		c-0.0096893,0.004694-0.014679,0.0096912-0.0242157,0.0143852c-1.1678314,0.6735554-0.8334656,1.2769985-1.1292114,1.8051815
		c-0.30513,0.5401459-1.4244843,0.3632774-1.4052582,1.6136246c0.0243835,1.2477722,0.5766449,2.4323978,2.3939362,2.1296921
		c1.5990906-0.2666664,2.592453,0.714592,2.8105164,0.9570293l0.9691467,1.700695
		c0.5524139-0.3198166,1.0902863-0.6299419,1.6186218-0.9326496L253.6687775,22.8509808z"/>
	<path class="st0" d="M71.1402817,245.9407043l-0.3781204-0.3054352l7.7193832-9.6428223l-0.4844208-0.3925018l-7.7290726,9.6428223
		l-0.3391953-0.2760468c-0.470192-0.3781281-1.1581268-0.3004456-1.53125,0.1694489
		c-0.0243835,0.024231-0.038765,0.0510254-0.0534515,0.0801086l1.1825027,0.9497528l-0.3488922,0.4336853l0.4942627,0.3899384
		l0.3488922-0.4286957l1.2211227,0.9788361c0.0290756-0.0219574,0.0436096-0.0411835,0.0726852-0.0631409
		C71.687851,247.0043335,71.6101685,246.3185272,71.1402817,245.9407043z"/>
	<path class="st0" d="M85.4884491,234.0782318c-1.1678162-0.8479919-2.3212433-1.6984253-3.4357605-2.5439911l-3.5711441,4.4582062
		l3.3386993,2.667572L85.4884491,234.0782318z"/>
	<path class="st0" d="M85.6385193,241.7225037l3.8232727-4.7634888c-1.1581268-0.83815-2.3209534-1.6741943-3.4645386-2.5050812
		l-3.6877441,4.6032715L85.6385193,241.7225037z"/>
	<polygon class="st0" points="212.7757568,67.3516312 213.2700348,67.7465515 214.0986481,66.702301 213.6142273,66.3073807 	"/>
	<path class="st0" d="M215.930481,69.8835144l-2.6604462-2.1369629l-2.3309479,2.9075851
		C212.5964661,70.3125153,214.2633972,70.0556946,215.930481,69.8835144z"/>
	<path class="st0" d="M217.8639221,69.7187653l-0.4265747-0.3463211l-0.3248138,0.4070435
		C217.3646545,69.7576828,217.6164856,69.7358704,217.8639221,69.7187653z"/>
	<path class="st0" d="M255.8543396,30.2578125l-0.489563-0.397501l-2.0158234,2.5197735
		c0.1694489,0.1356812,0.3537445,0.2448616,0.542572,0.3272362L255.8543396,30.2578125z"/>
	<path class="st0" d="M221.938858,102.0519638c10.6607361,0,17.9243164,5.0855789,23.0948486,11.3049088h0.2276001v-5.6331482
		c0-1.7614136-0.8430023-4.5913162-2.0447388-6.1902542c-4.1430969-5.4225082-12.5164948-10.0039825-22.3534546-10.0039825
		c-2.5159912,0-4.9677734,0.3722153-7.2740326,0.9991302l0.0007629-0.0010605
		c-0.0966034,0.0263443-0.1879272,0.0590515-0.2836304,0.0861588c-0.4757843,0.1343231-0.9485474,0.2736359-1.4107056,0.4286957
		c-0.02771,0.0090866-0.0563354,0.0163574-0.0840454,0.025589l-0.0057526,0.0072708
		c-0.3846283,0.1302338-0.7613831,0.2704544-1.1355591,0.4138565l0.0074158-0.0092392
		c-0.0667725,0.0257416-0.1334076,0.0534592-0.2001801,0.0794983c-0.1044922,0.0408859-0.2077637,0.082077-0.3114929,0.1238708
		c-0.1056976,0.0422516-0.2112427,0.0823746-0.3169403,0.1259918l0.0080261,0.0062027
		c-0.4679108,0.1944351-0.9276581,0.3955383-1.3757324,0.6075363l-0.0037842-0.0030289
		c-0.0510254,0.0240784-0.0955505,0.0525436-0.146286,0.0769272c-0.7114105,0.3413162-1.3957062,0.701416-2.0503387,1.078476
		c-0.0779877,0.0448227-0.1593018,0.0872192-0.2363739,0.1324997c-0.657959,0.3868942-1.2773132,0.7898483-1.8681793,1.2020416
		c-0.1211395,0.0844955-0.2386627,0.1683884-0.3567657,0.2536392c-0.5810394,0.4196091-1.1323853,0.8452759-1.6355896,1.2774506
		c-0.0326996,0.0281677-0.0610199,0.0561829-0.093277,0.0843506c-0.5236359,0.45504-0.9980621,0.9128113-1.4261475,1.3687592
		c-0.0110626,0.0118103-0.0260468,0.0236282-0.0369568,0.0354385l0.0015106,0.0012131
		c-0.3181458,0.3408661-0.6141968,0.6797562-0.8741913,1.0148697l-0.0043945-0.003479
		c-0.014389,0.0186234-0.0240784,0.0363388-0.0383148,0.0548172c-0.2310791,0.3008881-0.4398956,0.5984421-0.6208496,0.8902435
		c-1.046524,1.6764679-1.8074493,4.0751038-1.8074493,5.6040726v2.7086105v0.9231033v0.0799561v1.5239792v0.1479492v0.4433823
		h0.2812042C201.8971252,107.2005386,210.3721313,102.0519638,221.938858,102.0519638z"/>
	<path class="st0" d="M221.1635437,119.0190964c-17.2263641,0-26.4527588,12.8484116-26.4527588,28.9218216
		c0,14.1591797,9.2263947,26.9832153,25.3093262,26.9832153c17.2216797,0,26.4816895-12.8240356,26.4816895-28.8174744
		C246.5018005,131.8675079,237.2417908,119.0190964,221.1635437,119.0190964z M221.1635437,163.0351715
		c-8.7608948,0-12.6665497-6.3210907-12.6665497-16.9285126c0-8.8990173,3.9056549-15.2494812,11.5231171-15.2494812
		c8.7221375,0,12.6810913,6.3504639,12.6810913,17.0837402c0,1.384201-0.1046295,2.6984558-0.2928619,3.9454651l-0.0413361,0.001358
		c-0.3393555,2.0691223-0.9402313,3.9177704-1.8173065,5.4805145l0.1526489-0.0051422
		C228.8467407,160.8833618,225.6906586,163.0351715,221.1635437,163.0351715z"/>
	<path class="st0" d="M188.8718414,203.293396c-7.6462402,0-14.1258698-1.9470673-19.6672516-5.0837708
		c-0.606781-0.3432922-1.201889-0.7009583-1.7859497-1.0719604c-0.2109375-0.1340179-0.4230957-0.2663574-0.6311646-0.404007
		c-0.6314545-0.4173431-1.2482147-0.8517914-1.8533325-1.2992554c-0.1322021-0.0978241-0.2684784-0.1906586-0.3993225-0.2896881
		c-1.5250244-1.154953-2.9684448-2.3993835-4.3303986-3.7184906c-0.0001526,0.0001526-0.0003052,0.0001526-0.0004578,0.0003052
		c-2.2456818-2.168457-4.2890625-4.5245361-6.1436157-6.9876709h-0.4071808v6.6966248
		c0,0.6658325,0.0764618,1.4335785,0.2059326,2.2437286c-0.0027161-0.0003052-0.0045319,0.0001526-0.0072632-0.0001526
		c0.0048523,0.0296783,0.0146942,0.0625305,0.0196838,0.0923615c0.1002502,0.6087494,0.2392578,1.2415619,0.4020386,1.8830261
		c0.0254517,0.0997925,0.0522461,0.1963959,0.0790558,0.2963409c0.173233,0.6490173,0.3681183,1.2985077,0.5954132,1.9346466
		c0.0050049,0.0142365,0.0081787,0.0290833,0.0133209,0.0433197c0.0003052,0,0.0006104,0,0.0009155,0
		c0.5034943,1.3996429,1.125412,2.7178345,1.8260803,3.7361908c1.1799316,1.7361298,2.5997314,3.4165344,4.2227325,5.0019989
		c-0.0007477,0.0012054-0.0015106,0.0022736-0.0022736,0.003479c0.0368042,0.0360413,0.0814819,0.0681458,0.118576,0.1040344
		c0.8164978,0.7907562,1.6908569,1.5519867,2.6066895,2.2885437c0.0673828,0.0540619,0.1240234,0.1147766,0.191864,0.1685333
		c0.0018158-0.0024261,0.0030212-0.004837,0.0048523-0.0072632c6.7758179,5.3761749,16.1057892,9.1316071,26.5449829,9.1316071
		c15.0507965,0,28.6236572-9.684021,32.8683472-17.2774048c1.4732513-2.7861481,2.6457672-6.7547913,2.6457672-9.3278656v-6.9560242
		h-0.3681183C219.0994263,194.6486359,206.3988037,203.293396,188.8718414,203.293396z"/>
	<path class="st0" d="M89.6168518,174.3306885c0.4822998,0,0.9056931-0.0534515,1.3587723-0.0801086
		c-0.0087814,0.0131836-0.0171127,0.0283203-0.0258942,0.0413513c0.245163-0.0136414,0.4538269-0.0592194,0.6905136-0.0804138
		c0.4135513-0.0372467,0.8186188-0.0805664,1.2062759-0.1405334c0.4212799-0.0649567,0.8190842-0.1482391,1.2093124-0.2392578
		c0.3502579-0.0817719,0.6977844-0.1642914,1.023056-0.26651c0.3744812-0.1173553,0.7195892-0.2566681,1.0607529-0.4002228
		c0.2855988-0.1202393,0.5746765-0.2366791,0.8369446-0.3746338c0.325119-0.1708069,0.614502-0.3664551,0.9034271-0.5634613
		c0.2236633-0.1528015,0.4570084-0.2975616,0.6591721-0.4654999c0.2721176-0.2260895,0.5025864-0.4792633,0.7351837-0.7318573
		c0.1636963-0.1777802,0.3431396-0.3443451,0.4871445-0.5348358c0.2159348-0.2854462,0.383873-0.6001129,0.555748-0.9128113
		c0.1063004-0.1935272,0.234108-0.3734283,0.3234482-0.5769501c0.1591492-0.3626709,0.2637863-0.7559357,0.3688812-1.1492004
		c0.0492096-0.1842804,0.1250763-0.3535767,0.1626358-0.5443726c0.1172028-0.5973969,0.1811066-1.2230988,0.1811066-1.879837
		v-4.8022614h-0.474884c-0.4638214,0.2931671-1.0122986,0.5393829-1.5989304,0.7639618
		c-0.1379547,0.0528412-0.2784805,0.1040192-0.4230957,0.1530914c-0.6110153,0.2073059-1.2609482,0.3926544-1.9853821,0.5342407
		c-0.0257416,0.0049896-0.0552673,0.0077209-0.0811615,0.0125732c-1.6165009,0.3093567-3.498909,0.4624634-5.6223984,0.4624634
		c-5.2865219,0-8.3441696-2.7378387-8.3441696-9.6673584v-6.6627197v-4.3320618v-9.9314575h10.5394363
		c5.5338058,0,7.9905853-3.5446472,7.9905853-6.3331985v-5.4709702H82.8233109v-12.0827942h-3.091568
		c-2.1274261,0-4.4580612,1.640274-6.2414398,3.6900101c-2.9169693,3.3436966-3.8959579,5.3327179-3.8959579,10.5686646v19.4093704
		v5.4200897v7.3097687C69.5943451,166.994278,76.1507568,174.3306885,89.6168518,174.3306885z"/>
	<path class="st0" d="M117.5088043,116.4169464c4.2400055,0,7.8549042-3.5373764,7.8549042-7.8355255
		c0-4.295578-3.6148987-7.7337646-7.8549042-7.7337646c-4.2543869,0-7.7142334,3.4381866-7.7142334,7.7337646
		C109.7945709,112.87957,113.2544174,116.4169464,117.5088043,116.4169464z"/>
	<path class="st0" d="M293.3842773,131.2643738l-30.8575439-3.5543365c-0.0873718,0.1526413-0.1794434,0.30513-0.26651,0.4555054
		c0.6782532,1.5191345,1.2645874,3.0744476,1.7733765,4.6712646l22.7459717,2.6189575l-21.2486267,3.394577
		c0.2860413,1.6039429,0.4992676,3.2319489,0.6252441,4.8796387l27.4023743-4.3782501
		c2.0402222-0.3245239,3.4842224-2.0592804,3.4404602-4.1212921
		C296.9555664,133.1687469,295.434021,131.4968109,293.3842773,131.2643738z"/>
</g>
</svg>
